<svg id="Capa_1" data-name="Capa 1" xmlns="http://www.w3.org/2000/svg" viewBox="0 0 62.67 72.39"><defs><style>.cls-1{fill:none;}.cls-2{fill:#f2cb00;}.cls-3{fill:#fff;}</style></defs><title>icon-formato-csv-hover-01</title><polygon class="cls-1" points="34.6 21.3 51.9 21.3 34.6 4 34.6 21.3"/><path class="cls-2" d="M35.2,1.8h-25A6.25,6.25,0,0,0,4,8.1V58.2a6.32,6.32,0,0,0,6.2,6.3H47.8a6.34,6.34,0,0,0,6.3-6.3V20.7Zm-16.9,41a1.94,1.94,0,0,0,1.6.8,2.39,2.39,0,0,0,1.4-.5,1.43,1.43,0,0,0,.6-1.2H24a2.72,2.72,0,0,1-.6,1.7A4.07,4.07,0,0,1,22,44.8a4.55,4.55,0,0,1-2,.5A3.94,3.94,0,0,1,16.8,44a5.22,5.22,0,0,1-1.2-3.6V40.2a5.22,5.22,0,0,1,1.2-3.6A4.08,4.08,0,0,1,20,35.3,3.61,3.61,0,0,1,23.9,39H21.8a1.82,1.82,0,0,0-.6-1.4A1.14,1.14,0,0,0,20,37a1.82,1.82,0,0,0-1.6.8,3.71,3.71,0,0,0-.6,2.3v0.4A3.75,3.75,0,0,0,18.3,42.8Zm13.8,1.7a4.88,4.88,0,0,1-2.8.8,4.64,4.64,0,0,1-2.1-.4,4.43,4.43,0,0,1-1.5-1.2,2.35,2.35,0,0,1-.5-1.6h2.1a1.43,1.43,0,0,0,.6,1.2,2.12,2.12,0,0,0,1.4.4,2.27,2.27,0,0,0,1.3-.3,1,1,0,0,0,.4-0.9,1.05,1.05,0,0,0-.5-0.9,4.3,4.3,0,0,0-1.6-.5c-0.7-.2-1.4-0.4-1.9-0.6a2.42,2.42,0,0,1-1.6-2.3,2.76,2.76,0,0,1,1.1-2.1,4,4,0,0,1,2.7-.8,4.1,4.1,0,0,1,2.8.9,2.79,2.79,0,0,1,1.1,2.2H30.9a1.23,1.23,0,0,0-.5-1,2.24,2.24,0,0,0-2.4-.1,1.05,1.05,0,0,0-.5.9,0.91,0.91,0,0,0,.4.8,5.17,5.17,0,0,0,1.7.6,6.55,6.55,0,0,1,2,.7,5.3,5.3,0,0,1,1.1.9,2.84,2.84,0,0,1,.4,1.3A2.32,2.32,0,0,1,32.1,44.5Zm7.4,0.6H37.6l-3.4-9.7h2.3l2.1,6.9,2.1-6.9H43ZM34.6,21.3V4L51.8,21.2H34.6v0.1Z"/><path class="cls-3" d="M61.38,60.38h0a11,11,0,0,0-11-11h0A11,11,0,0,1,61.38,60.38Z"/><path class="cls-3" d="M50.39,70a9.56,9.56,0,1,0-9.56-9.56A9.56,9.56,0,0,0,50.39,70Z"/><path class="cls-2" d="M39.41,60.38a11,11,0,1,0,11-11A11,11,0,0,0,39.41,60.38Zm11-9.56a9.56,9.56,0,1,1-9.56,9.56A9.56,9.56,0,0,1,50.39,50.82Z"/><path class="cls-2" d="M56.3,60H52.93V54.89H47.86V60H44.49l5.9,5.91Z"/></svg>