<?xml version="1.0" encoding="utf-8"?>
<!-- Generator: Adobe Illustrator 19.2.1, SVG Export Plug-In . SVG Version: 6.00 Build 0)  -->
<svg version="1.1" id="Capa_1" xmlns="http://www.w3.org/2000/svg" xmlns:xlink="http://www.w3.org/1999/xlink" x="0px" y="0px"
   viewBox="0 0 62.6 79.4" style="enable-background:new 0 0 62.6 79.4;" xml:space="preserve">
<style type="text/css">
  .st0{fill:#ffffff;}
</style>
<title>icon-marcador-derecha</title>
<path class="st0" d="M32.7,39.7L10.4,17.4c-1-1-1-2.7,0-3.8c0,0,0,0,0,0l7-7c1-1,2.7-1.1,3.8,0c0,0,0,0,0,0l31.1,31.2
  c1,1,1.1,2.7,0,3.8c0,0,0,0,0,0L21.1,72.7c-1,1-2.7,1.1-3.8,0c0,0,0,0,0,0l-7-7c-1-1-1-2.7,0-3.8c0,0,0,0,0,0L32.7,39.7z"/>
</svg>
