<svg id="Capa_1" data-name="Capa 1" xmlns="http://www.w3.org/2000/svg" viewBox="0 0 62.67 72.39"><defs><style>.cls-1{fill:none;}.cls-2{fill:#fb8c00;}.cls-3{fill:#fff;}</style></defs><title>icon-formato-json-hover-01</title><polygon class="cls-1" points="34.8 21.25 52.04 21.25 34.8 4 34.8 21.25"/><path class="cls-2" d="M31.08,37a2,2,0,0,0-1.7.85,4.24,4.24,0,0,0-.63,2.54,3.92,3.92,0,0,0,.62,2.35,2.16,2.16,0,0,0,3.44,0,4.33,4.33,0,0,0,.62-2.52,3.86,3.86,0,0,0-.63-2.33A2,2,0,0,0,31.08,37Z"/><path class="cls-2" d="M35.43,1.8H10.36A6.26,6.26,0,0,0,4.12,8.07V58.22a6.26,6.26,0,0,0,6.24,6.27H48a6.29,6.29,0,0,0,6.22-6.27V20.61ZM15.19,46a3.2,3.2,0,0,1-.74,2.28,2.84,2.84,0,0,1-2.17.79,4.33,4.33,0,0,1-1.16-.15V47.11a3.37,3.37,0,0,0,.77.08A1,1,0,0,0,13,46V35.35h2.21V46ZM14.93,33.65A1.22,1.22,0,0,1,14,34a1.21,1.21,0,0,1-.91-0.33,1.14,1.14,0,0,1-.32-0.83A1.17,1.17,0,0,1,13.11,32,1.2,1.2,0,0,1,14,31.63a1.21,1.21,0,0,1,.92.33,1.16,1.16,0,0,1,.32.84A1.13,1.13,0,0,1,14.93,33.65ZM24,44.43a4.63,4.63,0,0,1-2.85.81A5,5,0,0,1,19,44.81a3.51,3.51,0,0,1-1.45-1.19A2.81,2.81,0,0,1,17,42h2.15a1.54,1.54,0,0,0,.58,1.19,2.27,2.27,0,0,0,1.43.42,2.2,2.2,0,0,0,1.31-.33,1.06,1.06,0,0,0,0-1.75A5.11,5.11,0,0,0,20.86,41,8.13,8.13,0,0,1,19,40.37a2.48,2.48,0,0,1-1.63-2.29A2.59,2.59,0,0,1,18.43,36a4.19,4.19,0,0,1,2.69-.84,4.35,4.35,0,0,1,2.81.86A2.73,2.73,0,0,1,25,38.24H22.83a1.34,1.34,0,0,0-.47-1,1.79,1.79,0,0,0-1.24-.42,1.93,1.93,0,0,0-1.17.33,1,1,0,0,0-.45.89,0.88,0.88,0,0,0,.42.78,5.8,5.8,0,0,0,1.71.56,8.07,8.07,0,0,1,2,.67,2.86,2.86,0,0,1,1.09.94,2.39,2.39,0,0,1,.35,1.33A2.53,2.53,0,0,1,24,44.43Zm11.06-1.56a4.08,4.08,0,0,1-1.58,1.75,4.51,4.51,0,0,1-2.37.62,4.21,4.21,0,0,1-3.29-1.37,5.25,5.25,0,0,1-1.23-3.65v-0.1a5.73,5.73,0,0,1,.57-2.57,4.13,4.13,0,0,1,1.59-1.76,4.48,4.48,0,0,1,2.35-.62,4.24,4.24,0,0,1,3.19,1.27A5,5,0,0,1,35.6,39.8v0.51a5.78,5.78,0,0,1-.55,2.57h0Zm10.4,2.19H43.27V38.77a2,2,0,0,0-.4-1.37A1.68,1.68,0,0,0,41.56,37a2.1,2.1,0,0,0-2,1.19v6.91H37.42V35.35h2.06l0.06,1.12a3.49,3.49,0,0,1,2.83-1.3q3,0,3.09,3.47v6.42h0ZM34.8,21.24V4L52,21.24H34.8Z"/><path class="cls-3" d="M61.38,60.38h0a11,11,0,0,0-11-11h0A11,11,0,0,1,61.38,60.38Z"/><path class="cls-3" d="M50.39,70a9.56,9.56,0,1,0-9.56-9.56A9.56,9.56,0,0,0,50.39,70Z"/><path class="cls-2" d="M39.41,60.38a11,11,0,1,0,11-11A11,11,0,0,0,39.41,60.38Zm11-9.56a9.56,9.56,0,1,1-9.56,9.56A9.56,9.56,0,0,1,50.39,50.82Z"/><path class="cls-2" d="M56.3,60H52.93V54.89H47.86V60H44.49l5.9,5.91Z"/></svg>