<svg id="Capa_1" data-name="Capa 1" xmlns="http://www.w3.org/2000/svg" viewBox="0 0 35.41 32.64"><defs><style>.cls-1{fill:rgba(0,0,0,0);}.cls-2{fill:#ffffff;}</style></defs><title>icon-check-no</title><rect class="cls-1" x="7.71" y="6.32" width="19" height="19" rx="2" ry="2"/><path class="cls-2" d="M25.27,6.32a2.83,2.83,0,0,1,2.44,2.44V23.89a2.83,2.83,0,0,1-2.44,2.44H10.14a2.83,2.83,0,0,1-2.44-2.44V8.76a2.83,2.83,0,0,1,2.44-2.44H25.71m-0.44-1H10.14A3.8,3.8,0,0,0,6.71,8.76V23.89a3.8,3.8,0,0,0,3.44,3.44H25.27a3.8,3.8,0,0,0,3.44-3.44V8.76a3.8,3.8,0,0,0-3.44-3.44h0Z"/></svg>