<?xml version="1.0" encoding="utf-8"?>
<!-- Generator: Adobe Illustrator 19.2.1, SVG Export Plug-In . SVG Version: 6.00 Build 0)  -->
<svg version="1.1" id="Capa_1" xmlns="http://www.w3.org/2000/svg" xmlns:xlink="http://www.w3.org/1999/xlink" x="0px" y="0px"
   viewBox="0 0 40.3 36.4" style="enable-background:new 0 0 40.3 36.4;" xml:space="preserve">
<style type="text/css">
  .st0{fill:#ffffff;}
</style>
<title>icon-cancelar</title>
<path class="st0" d="M32.2,25.5c0,0.5-0.2,1-0.6,1.4l-2.8,2.8c-0.8,0.8-2,0.8-2.8,0l-5.9-5.9l-5.9,5.9c-0.8,0.7-2,0.7-2.8,0
  l-2.7-2.8c-0.8-0.8-0.8-2,0-2.8l5.9-5.9l-5.9-5.9c-0.7-0.8-0.7-2,0-2.8l2.8-2.8c0.8-0.7,2-0.7,2.8,0l5.9,5.9l5.9-5.9
  c0.8-0.8,2-0.8,2.8,0l2.8,2.7c0.7,0.8,0.7,2,0,2.8l-5.9,5.9l5.9,5.9C32,24.5,32.2,25,32.2,25.5z"/>
</svg>
