<svg id="Capa_1" data-name="Capa 1" xmlns="http://www.w3.org/2000/svg" viewBox="0 0 62.67 72.39"><defs><style>.cls-1{fill:#3949ab;}.cls-2{fill:#fff;}</style></defs><title>icon-formato-xlsx-hover-01</title><path class="cls-1" d="M35.43,1.8H10.36A6.26,6.26,0,0,0,4.12,8.07V58.22a6.26,6.26,0,0,0,6.24,6.27H48a6.29,6.29,0,0,0,6.22-6.27V20.61Zm-16,43.26-1.94-3.32-1.93,3.32H13.1l3.09-4.92-3-4.79H15.6l1.81,3.2,1.85-3.2h2.42l-3,4.79,3.07,4.93H19.43Zm6.11,0H23.32V31.28H25.5V45.07h0Zm8.88-.63a4.63,4.63,0,0,1-2.85.81,5,5,0,0,1-2.13-.43A3.5,3.5,0,0,1,28,43.62,2.81,2.81,0,0,1,27.44,42h2.12a1.54,1.54,0,0,0,.58,1.19,2.27,2.27,0,0,0,1.43.42,2.2,2.2,0,0,0,1.31-.33,1.06,1.06,0,0,0,0-1.75,5.11,5.11,0,0,0-1.6-.53,8.13,8.13,0,0,1-1.86-.59,2.48,2.48,0,0,1-1.63-2.29A2.59,2.59,0,0,1,28.82,36a4.19,4.19,0,0,1,2.69-.84,4.36,4.36,0,0,1,2.81.86,2.73,2.73,0,0,1,1.07,2.24h-2.2a1.35,1.35,0,0,0-.47-1,1.79,1.79,0,0,0-1.24-.42,1.93,1.93,0,0,0-1.17.33,1,1,0,0,0-.45.89,0.88,0.88,0,0,0,.42.78,5.81,5.81,0,0,0,1.71.56,8.05,8.05,0,0,1,2,.67,2.86,2.86,0,0,1,1.09.94,2.39,2.39,0,0,1,.35,1.33,2.53,2.53,0,0,1-1,2.11h0Zm8.44,0.63-2-3.32L39,45.06H36.53l3.07-4.93-3-4.79H39l1.81,3.2,1.85-3.2h2.42l-3,4.79,3.1,4.94H42.86Zm-8-23.83V4L52,21.24H34.86Z"/><path class="cls-2" d="M61.38,60.38h0a11,11,0,0,0-11-11h0A11,11,0,0,1,61.38,60.38Z"/><path class="cls-2" d="M50.39,70a9.56,9.56,0,1,0-9.56-9.56A9.56,9.56,0,0,0,50.39,70Z"/><path class="cls-1" d="M39.41,60.38a11,11,0,1,0,11-11A11,11,0,0,0,39.41,60.38Zm11-9.56a9.56,9.56,0,1,1-9.56,9.56A9.56,9.56,0,0,1,50.39,50.82Z"/><path class="cls-1" d="M56.3,60H52.93V54.89H47.86V60H44.49l5.9,5.91Z"/></svg>