<?xml version="1.0" encoding="utf-8"?>
<!-- Generator: Adobe Illustrator 23.0.0, SVG Export Plug-In . SVG Version: 6.00 Build 0)  -->
<svg version="1.1" id="Capa_1" xmlns="http://www.w3.org/2000/svg" xmlns:xlink="http://www.w3.org/1999/xlink" x="0px" y="0px"
	 viewBox="0 0 388 153" style="enable-background:new 0 0 388 153;" xml:space="preserve">
<style type="text/css">
	.st0{fill:#64B1E5;}
	.st1{fill:#FFFFFF;}
	.st2{fill:#262424;}
	.st3{fill:#EFC430;}
	.st4{fill:#76A74F;}
	.st5{fill:#CE4229;}
	.st6{fill:#EABA81;}
</style>
<g>
	<path class="st0" d="M46.26,76.41H39.1c-1.56,0-2.42-0.65-2.86-1.19c-0.38-0.47-0.64-1.07-0.75-1.76
		c-0.01-0.05-0.02-0.11-0.02-0.16c-0.08-0.65-0.05-1.38,0.1-2.16c0.93-4.68,2.81-7.84,4.35-9.77c-0.17-0.05-0.34-0.13-0.49-0.22
		c-0.99-0.56-1.47-1.7-1.25-2.97c0.27-1.55,1.74-3.13,2-3.4c2.46-2.88,6.12-3.04,6.58-3.04c0.54-0.04,5.36-0.25,7.96,4.81
		c3.11,6.04,3.84,11.03,4.43,15.04l0.03,0.19c0.1,0.7,0.06,1.28-0.07,1.77c-0.01,0.06-0.03,0.11-0.05,0.16
		c-0.17,0.56-0.46,0.97-0.72,1.26c-0.64,0.7-1.59,1.15-2.81,1.35c-0.51,0.08-0.97,0.1-1.26,0.1c-0.14,0-0.24,0-0.29-0.01h-2.06
		c-0.01,0-0.02,0-0.04,0c-0.01,0-0.03,0-0.05,0H48.4v10.11h31.93c0-5.92-0.88-11.66-2.61-17.07c-1.67-5.21-4.07-9.89-7.11-13.9
		c-3.04-4-6.57-7.14-10.5-9.33c-4.05-2.26-8.35-3.4-12.78-3.4c-4.43,0-8.73,1.15-12.78,3.4c-3.93,2.19-7.46,5.33-10.5,9.33
		c-3.05,4.01-5.44,8.69-7.11,13.9c-1.73,5.4-2.61,11.15-2.61,17.07h31.93V76.41z"/>
	<path class="st1" d="M14.33,86.52c0,4.49,0.51,8.89,1.51,13.11c14.28-1.63,22.8-3.31,25.33-5c1.78-1.25,3.21-1.98,5.08-1.93v-6.18
		H14.33z"/>
	<path class="st1" d="M48.4,92.95c1.28,0.23,2.21,0.59,3.26,1.1c0.1,0,0.21-0.01,0.32-0.01c1.83-0.08,3.39,0.48,5.54,1.25
		c0.59,0.21,1.26,0.45,1.99,0.7c0.31,0.1,10.58,3.32,19.27,3.82c1.03-4.28,1.55-8.73,1.55-13.29H48.4V92.95z"/>
	<polyline class="st2" points="45.22,37.24 45.22,37.24 45.22,37.24 	"/>
	<path class="st2" d="M38.56,38.22"/>
	<polyline class="st2" points="38.56,38.22 38.56,38.22 38.56,38.22 38.56,38.22 	"/>
	<path class="st1" d="M61.41,106.9c-0.13,0.28-0.32,0.57-0.59,0.83c-0.54,0.52-1.26,0.8-2.14,0.83c-0.11,0.25-0.28,0.55-0.53,0.84
		c-0.48,0.55-1.35,1.16-2.79,1.09c-0.13,0.23-0.32,0.5-0.57,0.76c-0.71,0.72-1.67,1.01-2.71,0.83c-0.25,0.2-0.62,0.45-1.1,0.64
		c-0.6,0.24-1.48,0.42-2.56,0.21v8.47c0,0.59-0.48,1.07-1.07,1.07c-0.59,0-1.07-0.48-1.07-1.07v-8.11c-0.42,0.16-0.9,0.27-1.38,0.27
		c-0.19,0-0.37-0.02-0.56-0.05c-0.6-0.12-1.11-0.44-1.51-0.93c-0.72,0.12-1.97,0.2-2.86-0.41c-0.37-0.25-0.64-0.59-0.8-1
		c-0.29-0.03-0.64-0.09-1.01-0.21c-0.94-0.3-1.58-0.85-1.87-1.58c-0.22-0.01-0.47-0.03-0.74-0.07c-0.77-0.12-1.78-0.45-2.17-1.35
		c-0.08-0.19-0.14-0.39-0.17-0.59c-4.55,2.34-9.75,4.68-12.08,5.71c0.9,1.55,1.88,3.03,2.94,4.43c3.04,4,6.57,7.14,10.5,9.33
		c1.83,1.02,3.72,1.81,5.64,2.38c0.19-0.36,0.47-0.67,0.84-0.91c1.83-1.2,5.31-0.32,6.3-0.04c0.98-0.28,4.47-1.15,6.3,0.04
		c0.36,0.24,0.64,0.55,0.84,0.91c1.93-0.56,3.81-1.36,5.65-2.38c3.93-2.19,7.46-5.33,10.5-9.33c1-1.32,1.93-2.7,2.78-4.16
		C70.8,112.27,65.09,109.75,61.41,106.9"/>
	<path class="st0" d="M50.26,135.89c0.06-0.24,0.09-0.48,0.09-0.73c0-0.23-0.03-0.46-0.08-0.67c1.08-0.22,2.82-0.73,3.79-1.91
		c0.56-0.69,0.8-1.5,0.7-2.41c-0.09-0.8-0.48-1.44-1.13-1.87c-1.83-1.2-5.31-0.32-6.3-0.04c-0.98-0.28-4.47-1.15-6.3,0.04
		c-0.65,0.42-1.04,1.07-1.13,1.87c-0.1,0.91,0.13,1.72,0.7,2.41c0.97,1.19,2.73,1.71,3.81,1.92c-0.05,0.21-0.08,0.44-0.08,0.67
		c0,0.25,0.03,0.49,0.09,0.71c-0.78,0.77-3.3,2.98-6.95,3.39v0c0.11,0.19,0.43,0.71,1.06,1.28c3.24-0.61,5.54-2.39,6.58-3.36
		c0.1,0.11,0.22,0.22,0.34,0.32c-0.23,0.89-1.2,3.19-5.15,4.18c0.65,0.3,1.44,0.54,2.38,0.68c2.75-1.25,3.73-3.14,4.07-4.25
		c0.19,0.04,0.39,0.06,0.59,0.06c0.19,0,0.39-0.02,0.57-0.05c0.35,1.1,1.33,3,4.07,4.24c0.94-0.14,1.72-0.38,2.38-0.68
		c-3.93-0.99-4.91-3.26-5.14-4.17c0.12-0.1,0.24-0.21,0.35-0.32c1.05,0.97,3.34,2.74,6.57,3.35c0.64-0.57,0.96-1.09,1.06-1.28
		C53.57,138.85,51.06,136.67,50.26,135.89"/>
	<path class="st1" d="M52.85,129.48c0.29,0.19,0.45,0.46,0.49,0.84c0.06,0.52-0.07,0.96-0.38,1.35c-0.42,0.51-1.13,0.87-1.83,1.12
		c0.34-0.72,0.39-1.44,0.14-2.12c-0.25-0.68-0.67-1.16-1.14-1.51C51.21,129.05,52.26,129.1,52.85,129.48"/>
	<path class="st1" d="M44.72,131.15c0.53-1.43,2.53-1.45,2.61-1.45h0c0,0,0.54,0,1.14,0.19c0.75,0.24,1.25,0.67,1.47,1.26
		c0.24,0.65-0.21,1.32-0.61,1.74c-0.53-0.47-1.23-0.76-1.99-0.76c-0.77,0-1.47,0.29-2.01,0.77
		C44.94,132.49,44.48,131.81,44.72,131.15"/>
	<path class="st1" d="M43.53,132.79c-0.7-0.24-1.41-0.6-1.83-1.12c-0.32-0.39-0.44-0.83-0.38-1.35c0.04-0.38,0.2-0.64,0.49-0.84
		c0.42-0.27,1.07-0.38,1.8-0.38c0.3,0,0.61,0.02,0.92,0.05c-0.47,0.35-0.89,0.83-1.14,1.51C43.1,131.45,43.24,132.18,43.53,132.79"
		/>
	<path class="st1" d="M45.75,135.15c0-0.88,0.71-1.59,1.59-1.59c0.88,0,1.59,0.71,1.59,1.59c0,0.88-0.71,1.59-1.59,1.59
		C46.47,136.74,45.75,136.03,45.75,135.15"/>
	<path class="st1" d="M56.13,140.53c-3.23-0.61-5.52-2.37-6.57-3.35c-0.11,0.12-0.22,0.22-0.35,0.32c0.24,0.91,1.21,3.18,5.14,4.17
		C55.12,141.33,55.7,140.92,56.13,140.53"/>
	<path class="st1" d="M45.11,137.17c-1.05,0.97-3.34,2.75-6.58,3.36c0.43,0.39,1.02,0.8,1.77,1.14c3.95-1,4.92-3.29,5.15-4.18
		C45.33,137.39,45.22,137.29,45.11,137.17"/>
	<path class="st2" d="M87.28,95.03c0.03-0.23-0.06-0.46-0.24-0.61c-0.13-0.11-0.31-0.17-0.48-0.16c0.14-0.29,0.26-0.59,0.38-0.9
		c0.5-1.36,0.76-2.92,0.78-4.65c0-0.23-0.11-0.45-0.3-0.58c-0.14-0.09-0.31-0.13-0.47-0.11c0.1-0.29,0.19-0.58,0.27-0.88
		c0.36-1.4,0.47-2.98,0.31-4.7c-0.02-0.23-0.15-0.43-0.36-0.54c-0.15-0.08-0.32-0.1-0.49-0.06c0.09-0.34,0.16-0.68,0.22-1.04
		c0.22-1.43,0.17-3.01-0.15-4.71c-0.04-0.23-0.2-0.42-0.41-0.5c-0.12-0.05-0.24-0.06-0.36-0.04c0.04-0.24,0.08-0.49,0.11-0.73
		c0.16-1.44,0.03-3.02-0.37-4.7c-0.05-0.23-0.22-0.41-0.43-0.49c-0.22-0.08-0.46-0.04-0.64,0.09l0,0c0.03-0.37,0.04-0.75,0.03-1.14
		c-0.04-1.44-0.38-2.99-1.01-4.6c-0.08-0.22-0.27-0.37-0.49-0.42c-0.18-0.04-0.37,0-0.53,0.1c-0.01-0.35-0.04-0.7-0.09-1.05
		c-0.19-1.43-0.69-2.94-1.48-4.47c-0.11-0.21-0.31-0.34-0.54-0.37c-0.19-0.02-0.37,0.04-0.51,0.16c-0.05-0.32-0.12-0.65-0.2-0.97
		c-0.36-1.4-1.03-2.84-2-4.28c-0.13-0.19-0.35-0.3-0.57-0.3c-0.22,0-0.43,0.11-0.56,0.3c-0.11-0.38-0.25-0.75-0.42-1.13
		c-0.58-1.32-1.48-2.64-2.67-3.9c-0.16-0.17-0.41-0.25-0.64-0.2c-0.17,0.04-0.31,0.13-0.41,0.27c-0.18-0.37-0.39-0.74-0.62-1.1
		c-0.78-1.21-1.85-2.35-3.19-3.4c-0.18-0.14-0.42-0.18-0.64-0.11c-0.18,0.06-0.32,0.19-0.4,0.35c-0.89-1.19-2.15-2.08-3.75-2.66
		c0.28,0.03,0.57,0.05,0.86,0.07c1.9,0.11,3.23-0.29,3.29-0.3c0.4-0.12,0.66-0.52,0.61-0.94c-0.05-0.42-0.4-0.74-0.82-0.76
		c-2.07-0.1-2.85-0.52-3.83-1.06c-0.19-0.1-0.38-0.21-0.59-0.31l4.86-0.73c0.43-0.06,0.74-0.43,0.74-0.86
		c0-0.43-0.32-0.79-0.74-0.86l-4.82-0.69c0.56-0.15,1.21-0.34,1.88-0.57c1.79-0.62,2.88-1.5,2.92-1.54c0.32-0.27,0.41-0.73,0.2-1.1
		c-0.21-0.37-0.65-0.53-1.05-0.39c-1.95,0.7-2.83,0.61-3.95,0.49c-0.21-0.02-0.43-0.05-0.65-0.06l4.2-2.52
		c0.37-0.22,0.52-0.68,0.35-1.08c-0.17-0.4-0.6-0.61-1.01-0.51l-4.73,1.21c0.46-0.35,0.99-0.78,1.53-1.26
		c1.42-1.26,2.08-2.49,2.11-2.54c0.2-0.37,0.1-0.83-0.23-1.09c-0.33-0.26-0.8-0.24-1.11,0.04c-1.53,1.4-2.38,1.65-3.46,1.97
		c-0.2,0.06-0.41,0.12-0.62,0.19l2.91-3.93c0.26-0.35,0.22-0.83-0.08-1.13c-0.3-0.3-0.79-0.34-1.13-0.08l-3.93,2.93
		c0.29-0.51,0.62-1.11,0.93-1.76c0.83-1.71,0.97-3.1,0.97-3.16c0.04-0.42-0.23-0.81-0.63-0.92c-0.41-0.11-0.83,0.09-1.01,0.47
		c-0.88,1.88-1.57,2.44-2.44,3.14c-0.16,0.13-0.32,0.26-0.49,0.41l1.19-4.73c0.11-0.42-0.11-0.85-0.51-1.01
		c-0.4-0.16-0.86-0.01-1.08,0.36l-2.52,4.23c0.08-0.58,0.15-1.27,0.19-2c0.11-1.9-0.3-3.23-0.31-3.29c-0.12-0.4-0.52-0.66-0.94-0.6
		c-0.42,0.05-0.74,0.4-0.76,0.82c-0.09,2.07-0.52,2.85-1.05,3.84c-0.1,0.18-0.2,0.36-0.3,0.55l-0.7-4.82
		c-0.06-0.43-0.43-0.74-0.86-0.74h0c-0.43,0-0.8,0.32-0.86,0.75l-0.68,4.8c-0.15-0.55-0.34-1.19-0.56-1.85
		c-0.62-1.8-1.5-2.88-1.54-2.92c-0.27-0.33-0.73-0.41-1.1-0.2c-0.37,0.21-0.53,0.65-0.39,1.05c0.7,1.95,0.61,2.83,0.49,3.95
		c-0.02,0.22-0.05,0.44-0.07,0.67l-2.54-4.22c-0.22-0.37-0.68-0.52-1.08-0.35c-0.4,0.17-0.61,0.6-0.5,1.02l1.21,4.71
		c-0.35-0.46-0.77-0.98-1.24-1.51c-1.26-1.42-2.49-2.08-2.54-2.11c-0.37-0.2-0.83-0.1-1.09,0.23c-0.26,0.33-0.24,0.8,0.04,1.11
		c1.4,1.53,1.65,2.38,1.96,3.46c0.06,0.2,0.12,0.41,0.19,0.63l-3.95-2.92c-0.35-0.26-0.83-0.22-1.13,0.09
		c-0.3,0.31-0.34,0.79-0.08,1.13l2.93,3.91c-0.5-0.29-1.1-0.61-1.73-0.92c-1.71-0.83-3.1-0.97-3.16-0.97
		c-0.42-0.04-0.81,0.23-0.92,0.63c-0.11,0.41,0.09,0.83,0.47,1.01c1.88,0.88,2.43,1.57,3.14,2.44c0.13,0.16,0.27,0.33,0.41,0.5
		l-4.76-1.19c-0.42-0.1-0.85,0.11-1.01,0.51c-0.16,0.4-0.01,0.86,0.36,1.07l4.22,2.5c-0.58-0.08-1.26-0.15-1.97-0.19
		c-1.9-0.11-3.23,0.29-3.29,0.31c-0.4,0.12-0.66,0.52-0.6,0.94c0.05,0.42,0.4,0.74,0.82,0.76c2.07,0.09,2.85,0.52,3.84,1.05
		c0.18,0.1,0.37,0.2,0.56,0.3l-4.84,0.71c-0.43,0.06-0.74,0.43-0.74,0.86c0,0.43,0.32,0.79,0.74,0.86l4.88,0.71
		c-0.57,0.15-1.23,0.35-1.91,0.59c-1.79,0.63-2.87,1.51-2.92,1.55c-0.32,0.27-0.41,0.73-0.2,1.1c0.21,0.37,0.65,0.53,1.05,0.38
		c1.13-0.41,1.9-0.55,2.57-0.57c-1.04,0.91-1.79,1.64-2.16,2.11c-0.19,0.25-0.38,0.5-0.55,0.76c-0.08-0.13-0.21-0.24-0.36-0.29
		c-0.22-0.07-0.46-0.04-0.64,0.11c-1.37,1.06-2.47,2.22-3.26,3.44c-0.23,0.35-0.44,0.72-0.61,1.09c-0.1-0.16-0.27-0.27-0.46-0.3
		c-0.23-0.04-0.46,0.04-0.62,0.21c-1.19,1.27-2.08,2.58-2.67,3.9c-0.15,0.35-0.29,0.71-0.4,1.07c-0.12-0.11-0.27-0.18-0.44-0.19
		c-0.23-0.01-0.45,0.09-0.59,0.28c-1.03,1.39-1.76,2.8-2.18,4.18c-0.11,0.36-0.2,0.73-0.27,1.1c-0.15-0.16-0.36-0.25-0.58-0.23
		c-0.23,0.02-0.43,0.16-0.54,0.36c-0.81,1.53-1.32,3.03-1.52,4.46c-0.05,0.36-0.08,0.71-0.1,1.07c-0.16-0.13-0.38-0.18-0.59-0.14
		c-0.23,0.05-0.41,0.21-0.49,0.43c-0.6,1.62-0.92,3.17-0.95,4.62c-0.01,0.35,0.01,0.7,0.04,1.05c-0.18-0.1-0.39-0.12-0.58-0.05
		c-0.22,0.08-0.38,0.26-0.43,0.49c-0.4,1.68-0.52,3.26-0.37,4.7c0.03,0.27,0.07,0.54,0.12,0.8c-0.1-0.01-0.21,0.01-0.3,0.05
		c-0.21,0.09-0.37,0.28-0.41,0.5c-0.32,1.7-0.37,3.28-0.15,4.71C7.83,81.18,7.9,81.54,8,81.89c-0.09,0-0.19,0.03-0.28,0.07
		c-0.21,0.1-0.35,0.3-0.38,0.53c-0.21,1.71-0.16,3.3,0.15,4.71c0.07,0.31,0.15,0.61,0.24,0.9c-0.16-0.02-0.32,0.01-0.45,0.1
		c-0.2,0.12-0.32,0.34-0.32,0.57c-0.03,1.73,0.19,3.3,0.65,4.67c0.13,0.4,0.29,0.78,0.47,1.15c-0.05-0.01-0.07-0.02-0.09-0.02
		c-0.22-0.06-0.46,0-0.63,0.16c-0.17,0.16-0.25,0.39-0.22,0.61c0.27,1.7,0.76,3.21,1.45,4.48c0.13,0.25,0.28,0.48,0.43,0.71
		c-0.12,0.03-0.23,0.1-0.32,0.19c-0.16,0.17-0.22,0.4-0.17,0.63c0.4,1.68,1,3.15,1.78,4.37c0.19,0.29,0.39,0.57,0.59,0.83
		c-0.18,0.02-0.35,0.12-0.47,0.27c-0.14,0.19-0.18,0.43-0.1,0.65c0.59,1.62,1.36,3.02,2.28,4.14c0.2,0.25,0.41,0.48,0.63,0.7
		c-0.17,0.05-0.31,0.16-0.4,0.31c-0.12,0.2-0.13,0.45-0.02,0.65c0.78,1.54,1.7,2.84,2.75,3.84c0.22,0.21,0.45,0.41,0.69,0.6
		c-0.15,0.07-0.28,0.19-0.35,0.35c-0.1,0.21-0.08,0.46,0.05,0.65c0.94,1.46,1.99,2.65,3.14,3.54c0.35,0.27,0.71,0.51,1.07,0.73
		c-0.08,0.02-0.13,0.04-0.15,0.05c-0.22,0.08-0.38,0.26-0.44,0.49c-0.05,0.23,0.01,0.46,0.17,0.63c1.19,1.24,2.42,2.23,3.66,2.92
		c1.01,0.57,2.02,0.95,3.01,1.14c0.86,0.16,1.73,0.17,2.43,0.03c0.05-0.01,0.09-0.02,0.14-0.03c2.13,1.5,4.39,2.76,6.72,3.74
		c1.95,0.82,3.95,1.46,5.95,1.88c0.42,0.09,0.82,0.16,1.2,0.23c-0.83-0.31-1.7-0.78-2.28-1.49c-0.1-0.13-0.19-0.26-0.27-0.39
		c-1.38-0.37-2.75-0.85-4.1-1.41c-2.22-0.94-4.38-2.14-6.43-3.57c0.01-0.04,0.02-0.07,0.02-0.08c0.03-0.69-0.04-1.39-0.23-2.08
		c1.48,1.19,2.79,2.16,4.23,2.96c1.96,1.09,3.99,1.93,6.06,2.53c0-0.12,0.01-0.24,0.02-0.36c0.04-0.35,0.14-0.67,0.29-0.96
		c-1.93-0.56-3.81-1.36-5.64-2.38c-3.93-2.19-7.46-5.33-10.5-9.33c-1.06-1.4-2.04-2.88-2.94-4.43c2.33-1.03,7.53-3.37,12.08-5.71
		c0.03,0.2,0.08,0.4,0.17,0.59c0.39,0.9,1.4,1.23,2.17,1.35c0.26,0.04,0.52,0.06,0.74,0.07c0.29,0.73,0.94,1.28,1.87,1.58
		c0.37,0.12,0.72,0.18,1.01,0.21c0.16,0.41,0.43,0.75,0.8,1c0.89,0.61,2.14,0.53,2.86,0.41c0.4,0.49,0.92,0.81,1.51,0.93
		c0.19,0.04,0.38,0.05,0.56,0.05c0.48,0,0.96-0.11,1.38-0.27v8.11c0,0.59,0.48,1.07,1.07,1.07c0.59,0,1.07-0.48,1.07-1.07v-8.47
		c1.08,0.22,1.96,0.03,2.56-0.21c0.49-0.19,0.86-0.44,1.1-0.64c1.05,0.18,2-0.1,2.71-0.83c0.25-0.25,0.44-0.53,0.57-0.76
		c1.45,0.07,2.31-0.54,2.79-1.09c0.25-0.29,0.42-0.59,0.53-0.84c0.89-0.04,1.61-0.32,2.14-0.83c0.27-0.26,0.46-0.55,0.59-0.83
		c3.68,2.85,9.39,5.37,11.98,6.44c-0.86,1.45-1.78,2.84-2.78,4.16c-3.04,4-6.57,7.14-10.5,9.33c-1.83,1.02-3.72,1.81-5.65,2.38
		c0.15,0.29,0.25,0.61,0.29,0.96c0.01,0.12,0.02,0.24,0.02,0.36c2.08-0.59,4.1-1.43,6.06-2.53c1.54-0.86,2.96-1.93,4.27-3
		c-0.19,0.7-0.28,1.4-0.24,2.1c0,0.04,0.01,0.07,0.01,0.1c-0.63,0.48-2.29,1.68-4.72,2.86c-1.83,0.89-3.72,1.6-5.63,2.11
		c-0.08,0.02-0.16,0.04-0.24,0.06c-0.07,0.11-0.15,0.22-0.23,0.33c-0.6,0.73-1.49,1.2-2.33,1.51c1.06-0.16,2.12-0.38,3.17-0.66
		c1.99-0.53,3.97-1.28,5.87-2.21c2.56-1.25,4.28-2.5,4.93-3c0.04,0.01,0.07,0.03,0.1,0.04c0.72,0.14,1.58,0.14,2.45-0.03
		c0.99-0.19,2-0.57,3.01-1.14c1.23-0.7,2.46-1.68,3.66-2.92c0.16-0.17,0.23-0.4,0.17-0.63c-0.05-0.23-0.22-0.41-0.44-0.49
		c-0.02-0.01-0.05-0.02-0.11-0.03c0.37-0.22,0.74-0.47,1.09-0.74c1.15-0.89,2.2-2.08,3.14-3.54c0.13-0.2,0.14-0.44,0.05-0.65
		c-0.07-0.16-0.2-0.28-0.35-0.35c0.24-0.19,0.47-0.39,0.69-0.6c1.05-1.01,1.97-2.3,2.75-3.84c0.1-0.21,0.1-0.45-0.02-0.65
		c-0.11-0.18-0.29-0.3-0.49-0.33c0.24-0.24,0.47-0.49,0.69-0.76c0.92-1.12,1.69-2.51,2.28-4.14c0.07-0.21,0.05-0.44-0.08-0.62
		c-0.12-0.18-0.32-0.29-0.54-0.3c0,0,0,0,0,0c0.2-0.25,0.39-0.51,0.58-0.78c0.81-1.21,1.43-2.66,1.85-4.34
		c0.06-0.23,0-0.46-0.16-0.63c-0.14-0.16-0.35-0.23-0.55-0.22c0.19-0.3,0.37-0.61,0.53-0.93C86.63,98.27,87.07,96.74,87.28,95.03
		 M86.47,89.66c0.01,0.01,0.02,0.02,0.02,0.03c-0.08,1.18-0.3,2.26-0.65,3.21c-0.35,0.96-0.83,1.81-1.43,2.51
		c-0.7,0.83-1.43,1.27-1.71,1.42c-0.01,0-0.01,0-0.02,0c-0.01,0-0.02,0-0.03-0.01c-0.95-1.29-1.41-2.87-1.38-4.7
		c0.01-0.58,0.07-1.18,0.19-1.76c0-0.01,0.01-0.02,0.03-0.03c0.01,0,0.03,0,0.04,0.01c0.85,1.04,1.32,2.41,1.32,2.42
		c0.07,0.2,0.24,0.33,0.45,0.35c0.21,0.01,0.4-0.1,0.49-0.29c0.78-1.63,1.86-2.62,2.63-3.17C86.44,89.65,86.46,89.65,86.47,89.66
		 M86.34,83.52c0.01-0.01,0.03-0.01,0.04-0.01c0.01,0.01,0.02,0.02,0.02,0.03c0.03,1.18-0.08,2.28-0.33,3.26
		c-0.25,0.99-0.64,1.88-1.17,2.64c-0.62,0.89-1.29,1.4-1.56,1.57c-0.01,0-0.01,0.01-0.02,0.01c-0.01,0-0.02,0-0.03-0.01
		c-1.67-1.89-1.83-4.7-1.78-6.2c0-0.01,0.01-0.03,0.02-0.03c0.01,0,0.03,0,0.04,0.01c0.9,0.98,1.5,2.18,1.51,2.19
		c0.09,0.18,0.28,0.3,0.49,0.28c0.2-0.01,0.38-0.14,0.45-0.34C84.65,85.22,85.63,84.13,86.34,83.52 M85.68,77.28
		c0.01-0.01,0.02-0.01,0.04-0.01c0.01,0,0.02,0.02,0.02,0.03c0.15,1.17,0.15,2.27-0.01,3.28c-0.15,1.01-0.46,1.93-0.91,2.74
		c-0.54,0.96-1.17,1.54-1.42,1.74c-0.01,0.01-0.01,0.01-0.02,0.01c-0.01,0-0.02,0-0.02-0.01c-1.65-1.37-2.15-4.33-2.3-5.97
		c0-0.01,0.01-0.03,0.02-0.04c0.01-0.01,0.03,0,0.04,0.01c0.97,0.88,1.66,1.97,1.66,1.99c0.11,0.17,0.31,0.27,0.51,0.23
		c0.2-0.03,0.37-0.18,0.42-0.38C84.16,79.14,85.03,77.96,85.68,77.28 M84.7,71.35c0.01-0.01,0.02-0.01,0.04-0.01
		c0.01,0,0.02,0.01,0.03,0.03c0.2,1.16,0.25,2.27,0.15,3.27c-0.11,1.02-0.37,1.95-0.78,2.78c-0.48,0.97-1.08,1.57-1.31,1.78
		c-0.01,0.01-0.02,0.01-0.02,0.01c-0.01,0-0.02,0-0.02-0.01c-1.39-1.17-2.05-2.9-2.36-4.15c-0.14-0.56-0.24-1.14-0.3-1.74
		c0-0.01,0.01-0.03,0.02-0.03c0.01-0.01,0.03-0.01,0.04,0c1.03,0.84,1.81,1.94,1.82,1.95c0.12,0.17,0.32,0.25,0.52,0.21
		c0.2-0.04,0.36-0.2,0.4-0.4C83.27,73.29,84.08,72.07,84.7,71.35 M37.35,71.74c0.01-0.08,0.03-0.16,0.04-0.24
		c0.81-4.08,2.41-6.86,3.61-8.48c0.9-1.21,1.72-1.97,2.12-2.31c0.13-0.09,0.26-0.2,0.38-0.3c0.39-0.34,0.45-0.92,0.14-1.33
		c-0.32-0.41-0.9-0.5-1.32-0.2c-0.04,0.03-0.19,0.13-0.41,0.32c-0.91,0.63-1.42,0.43-1.56,0.35c-0.29-0.17-0.42-0.56-0.34-1.04
		c0.15-0.88,1.14-2.06,1.52-2.43c0.02-0.02,0.03-0.03,0.05-0.05c2-2.36,5.19-2.41,5.23-2.41c0.03,0,0.06,0,0.09,0
		c0.01,0,1-0.08,2.25,0.33c1.71,0.56,3.03,1.73,3.93,3.48c1.26,2.45,2.21,4.92,2.92,7.55c-1.78-0.64-3.19-1.79-3.21-1.8
		c-0.41-0.34-1.03-0.28-1.37,0.13c-0.17,0.2-0.24,0.45-0.22,0.71c0.02,0.26,0.15,0.49,0.35,0.66c0.09,0.08,2.29,1.88,4.96,2.47
		c0.19,0.89,0.36,1.83,0.53,2.92c-0.85-0.44-1.86-0.7-2.68-0.92c-0.56-0.15-1.1-0.29-1.51-0.45c-1.82-0.73-3.37-1.95-3.39-1.96
		c-0.42-0.33-1.03-0.26-1.37,0.16c-0.33,0.42-0.26,1.03,0.16,1.37c0.07,0.06,1.79,1.4,3.87,2.24c0.52,0.21,1.11,0.37,1.74,0.53
		c2.31,0.61,3.35,1.08,3.4,2.23c-0.07,0.18-0.16,0.34-0.29,0.48c-0.73,0.8-2.36,0.88-2.92,0.85c-0.02,0-0.04,0-0.07,0h-2.17
		c-0.43-0.01-2.65-0.1-4.56-1.33C42.34,70.05,40.11,70.54,37.35,71.74 M45.73,74.55H39.1c-0.68,0-1.15-0.17-1.43-0.51
		c-0.06-0.07-0.11-0.16-0.16-0.25C40.29,72.53,41.75,72.08,45.73,74.55 M48.4,86.52V76.41h3.42c0.02,0,0.03,0,0.05,0
		c0.02,0,0.03,0,0.04,0h2.06c0.05,0,0.15,0.01,0.29,0.01c0.29,0,0.75-0.02,1.26-0.1c1.22-0.2,2.17-0.65,2.81-1.35
		c0.27-0.29,0.55-0.7,0.72-1.26c0.02-0.05,0.04-0.1,0.05-0.16c0.13-0.48,0.17-1.07,0.07-1.77l-0.03-0.19
		c-0.59-4.01-1.33-9-4.43-15.04c-2.6-5.06-7.42-4.85-7.96-4.81c-0.45,0.01-4.11,0.16-6.58,3.04c-0.26,0.27-1.73,1.84-2,3.4
		c-0.22,1.27,0.26,2.41,1.25,2.97c0.16,0.09,0.32,0.16,0.49,0.22c-1.55,1.93-3.42,5.09-4.35,9.77c-0.16,0.78-0.19,1.51-0.1,2.16
		c0,0.05,0.01,0.11,0.02,0.16c0.11,0.69,0.36,1.29,0.75,1.76c0.45,0.54,1.3,1.19,2.86,1.19h7.15v10.11v6.18
		c-1.87-0.06-3.31,0.67-5.08,1.93c-2.53,1.69-11.05,3.37-25.33,5c-1-4.22-1.51-8.61-1.51-13.11c0-5.92,0.88-11.66,2.61-17.07
		c1.67-5.21,4.07-9.89,7.11-13.91c3.04-4,6.57-7.14,10.5-9.33c4.05-2.26,8.35-3.4,12.78-3.4c4.43,0,8.73,1.14,12.78,3.4
		c3.93,2.19,7.46,5.33,10.5,9.33c3.05,4.01,5.44,8.69,7.11,13.91c1.73,5.4,2.61,11.15,2.61,17.07c0,4.56-0.52,9.01-1.55,13.29
		c-8.69-0.5-18.96-3.72-19.27-3.82c-0.73-0.25-1.4-0.49-1.99-0.7c-2.15-0.78-3.71-1.34-5.54-1.25c-0.11,0.01-0.21,0.01-0.32,0.01
		c-1.05-0.51-1.98-0.87-3.26-1.1V86.52z M61.9,40.81c-0.53,0.21-1.35,0.49-2.27,0.66c-0.59,0.11-1.14,0.16-1.67,0.16
		c-1.25,0-2.32-0.31-3.19-0.92c-0.01-0.01-0.02-0.02-0.01-0.03c0-0.01,0.01-0.02,0.02-0.03c0.4-0.23,1.05-0.54,1.88-0.74
		c0.89-0.21,1.8-0.24,2.71-0.08c0.85,0.14,1.7,0.45,2.54,0.92c0.01,0.01,0.02,0.02,0.02,0.03C61.92,40.8,61.91,40.81,61.9,40.81
		 M63.15,44.33c0.01,0.01,0.01,0.02,0.01,0.03c0,0.01-0.01,0.02-0.02,0.03c-0.36,0.12-0.94,0.28-1.64,0.31
		c-0.08,0-0.16,0.01-0.24,0.01c-1.48,0-2.93-0.54-4.31-1.61c-0.01-0.01-0.02-0.02-0.01-0.03c0-0.01,0.01-0.02,0.02-0.03
		c0.62-0.2,1.24-0.31,1.86-0.35C60.55,42.57,62.01,43.13,63.15,44.33 M56.32,38.86c-0.58,0.27-1.59,0.63-3.1,0.82
		c-0.21,0.03-0.38,0.18-0.43,0.39c-0.05,0.21,0.03,0.42,0.21,0.54c0.01,0.01,1.18,0.82,2.03,1.89c0.01,0.01,0.01,0.03,0,0.04
		c-0.01,0.01-0.02,0.02-0.03,0.02h0c-1.42-0.04-4.1-0.46-6-2.74c-0.01-0.01-0.01-0.04,0-0.05c0.3-0.29,0.83-0.7,1.64-1
		c1.52-0.57,3.49-0.56,5.68,0.03c0.01,0,0.02,0.02,0.03,0.03S56.33,38.85,56.32,38.86 M49.94,37.81c-0.51,0.39-1.42,0.96-2.91,1.41
		c-0.21,0.06-0.36,0.25-0.36,0.47c-0.01,0.22,0.13,0.42,0.33,0.49c0.01,0,1.28,0.49,2.3,1.35c0.01,0.01,0.02,0.02,0.01,0.04
		c0,0.01-0.02,0.02-0.03,0.02c-0.36,0.03-0.79,0.06-1.27,0.06c-1.54,0-3.55-0.27-5.11-1.46c-0.01-0.01-0.02-0.03-0.01-0.05
		c0.24-0.34,0.67-0.84,1.4-1.3c1.39-0.88,3.33-1.26,5.63-1.11c0.01,0,0.03,0.01,0.03,0.03C49.95,37.79,49.95,37.81,49.94,37.81
		 M43.38,37.92c-0.37,0.51-1.13,1.27-2.63,2.01c-0.2,0.1-0.31,0.31-0.28,0.53c0.03,0.22,0.2,0.39,0.41,0.43
		c0.01,0,1.35,0.26,2.54,0.85c0.01,0.01,0.02,0.02,0.02,0.03c0,0.01-0.01,0.03-0.02,0.03c-0.56,0.18-1.13,0.33-1.69,0.43
		c-0.51,0.09-1.11,0.16-1.76,0.16c-0.97,0-2.04-0.15-3.06-0.62c-0.02-0.01-0.02-0.03-0.02-0.05c0.15-0.38,0.47-0.97,1.08-1.57
		c1.18-1.17,3.04-1.96,5.38-2.29c0.01,0,0.03,0,0.04,0.02C43.39,37.89,43.39,37.91,43.38,37.92 M34.94,41.95
		c-0.16,0.14-0.22,0.37-0.15,0.57c0.07,0.2,0.27,0.33,0.48,0.33h0c0,0,0.56,0,1.31,0.09c0.5,0.07,0.96,0.16,1.37,0.29
		c0.01,0,0.02,0.02,0.03,0.03c0,0.01-0.01,0.03-0.02,0.03c-0.53,0.27-1.08,0.5-1.63,0.69c-1.2,0.41-2.23,0.56-3.08,0.56
		c-0.74,0-1.35-0.11-1.81-0.24c-0.02,0-0.03-0.02-0.03-0.04c0.22-1.08,1.22-3.74,5.79-5.29c0.01,0,0.03,0,0.04,0.01
		c0.01,0.01,0.01,0.03,0.01,0.04C36.95,39.7,36.3,40.77,34.94,41.95 M81.55,69.26c0.12-1.81,0.75-3.12,1.26-3.91
		c0.01-0.01,0.02-0.02,0.04-0.02c0.01,0,0.02,0.01,0.03,0.02c0.36,1.13,0.56,2.21,0.6,3.22c0.04,1.02-0.09,1.98-0.39,2.86
		c-0.34,1.03-0.85,1.7-1.05,1.94c-0.01,0.01-0.02,0.01-0.03,0.01c-0.01,0-0.01,0-0.02-0.01c-1.29-0.81-2.29-2.09-2.96-3.82
		c-0.21-0.53-0.38-1.09-0.51-1.67c0-0.01,0-0.03,0.01-0.04c0.01-0.01,0.03-0.01,0.04,0c1.15,0.69,2.09,1.7,2.1,1.71
		c0.14,0.15,0.35,0.2,0.55,0.14C81.4,69.64,81.54,69.47,81.55,69.26 M79.51,63.61c-0.07-1.81,0.42-3.18,0.85-4.02
		c0.01-0.01,0.02-0.02,0.03-0.02c0.01,0,0.03,0.01,0.03,0.02c0.48,1.08,0.79,2.14,0.93,3.15c0.14,1.01,0.11,1.98-0.09,2.88
		c-0.24,1.05-0.67,1.78-0.85,2.04c-0.01,0.01-0.02,0.02-0.03,0.02c-0.01,0-0.01,0-0.02,0c-1.37-0.67-2.49-1.85-3.35-3.5
		c-0.26-0.51-0.49-1.04-0.68-1.6c0-0.01,0-0.03,0.01-0.04c0.01-0.01,0.03-0.01,0.04-0.01c1.21,0.56,2.25,1.47,2.26,1.48
		c0.15,0.14,0.37,0.17,0.56,0.08C79.41,64,79.52,63.81,79.51,63.61 M76.67,58.81L76.67,58.81c0.18-0.1,0.28-0.31,0.25-0.52
		c-0.28-1.79,0.05-3.21,0.37-4.08c0-0.01,0.02-0.02,0.03-0.02c0.01,0,0.03,0.01,0.03,0.02c0.6,1.02,1.04,2.04,1.3,3.02
		c0.26,0.99,0.35,1.96,0.25,2.87c-0.11,1.07-0.46,1.84-0.6,2.12c-0.01,0.01-0.02,0.02-0.03,0.02c0,0-0.01,0-0.01,0
		c-1.54-0.54-2.83-1.59-3.84-3.12c-0.32-0.49-0.61-1.02-0.84-1.57c-0.01-0.01,0-0.03,0.01-0.04c0.01-0.01,0.02-0.01,0.04-0.01
		c1.32,0.38,2.46,1.27,2.47,1.28C76.25,58.89,76.49,58.91,76.67,58.81 M72.84,53.9c0.18,0.13,0.42,0.12,0.59-0.01
		c0.18-0.13,0.25-0.36,0.19-0.56c-0.49-1.6-0.41-3.08-0.26-4.05c0-0.01,0.01-0.03,0.03-0.03c0.01,0,0.03,0,0.04,0.01
		c0.74,0.9,1.32,1.82,1.73,2.73c0.42,0.94,0.66,1.88,0.71,2.79c0.06,1.04-0.13,1.81-0.25,2.18c0,0.01-0.02,0.02-0.03,0.02
		c0,0,0,0-0.01,0c-1.5-0.28-2.91-1.11-4.19-2.47c-0.42-0.45-0.82-0.94-1.17-1.47c-0.01-0.01-0.01-0.03,0-0.04
		c0.01-0.01,0.02-0.02,0.03-0.02C71.69,53.11,72.83,53.89,72.84,53.9 M69.01,49.53c0.2,0.08,0.42,0.02,0.57-0.13
		c0.14-0.16,0.17-0.39,0.07-0.58c-0.83-1.6-0.97-3.05-0.94-3.98c0-0.01,0.01-0.03,0.02-0.03c0.01-0.01,0.03,0,0.04,0.01
		c0.86,0.77,1.58,1.58,2.13,2.42c0.56,0.86,0.95,1.75,1.16,2.66c0.25,1.07,0.18,1.93,0.14,2.25c0,0.02-0.02,0.03-0.03,0.03
		c-0.03,0-0.06,0-0.09,0c-1.7,0-3.27-0.93-4.3-1.72c-0.51-0.39-1-0.84-1.47-1.32c-0.01-0.01-0.01-0.02-0.01-0.04
		c0-0.01,0.02-0.02,0.03-0.02c0.06,0,0.13,0,0.19,0C67.81,49.07,69,49.52,69.01,49.53 M67.5,45.55c0.4,1.03,0.45,2.01,0.44,2.49
		c0,0.02-0.02,0.03-0.03,0.04c-0.09,0.01-0.18,0.01-0.27,0.01c-2.1,0-4.54-1.41-5.84-2.27c-0.01-0.01-0.02-0.02-0.01-0.04
		c0-0.01,0.01-0.03,0.03-0.03c1.33-0.26,2.6,0.04,2.61,0.04c0.21,0.05,0.43-0.04,0.55-0.22c0.12-0.18,0.1-0.42-0.03-0.59
		c-0.83-1.04-1.34-2.24-1.63-3.06c0-0.01,0-0.03,0.01-0.04c0.01-0.01,0.02-0.01,0.04-0.01C65.42,42.56,66.81,43.79,67.5,45.55
		 M29.41,39.35c0.1-0.04,0.2-0.08,0.3-0.11c1.23-0.43,2.41-0.72,3-0.85c1.36-0.31,2.32-0.91,2.36-0.93
		c0.12-0.08,0.19-0.23,0.16-0.37c-0.03-0.14-0.15-0.25-0.29-0.27l-6.05-0.88l6.05-0.89c0.17-0.02,0.3-0.17,0.3-0.34
		c0-0.17-0.13-0.32-0.3-0.35c-0.01,0-1.32-0.2-2.67-0.81c-0.4-0.18-0.75-0.37-1.06-0.54c-0.53-0.29-1.05-0.57-1.73-0.79
		c0.11,0,0.21,0.01,0.32,0.01c1.31,0.08,2.5,0.26,3.1,0.37c1.38,0.24,2.49,0.05,2.54,0.05c0.14-0.02,0.26-0.14,0.28-0.28
		c0.03-0.14-0.04-0.29-0.17-0.36l-5.26-3.12l5.93,1.49c0.17,0.04,0.34-0.05,0.41-0.2c0.07-0.16,0.01-0.34-0.14-0.43
		c-0.01-0.01-1.13-0.69-2.16-1.78c-0.3-0.31-0.54-0.61-0.77-0.91c-0.38-0.47-0.75-0.93-1.3-1.39c0.1,0.04,0.2,0.09,0.29,0.13
		c1.18,0.57,2.21,1.2,2.72,1.53c1.18,0.75,2.28,1.01,2.33,1.02c0.14,0.03,0.29-0.03,0.37-0.15c0.08-0.12,0.07-0.28-0.01-0.4
		l-3.66-4.89l4.92,3.64c0.14,0.1,0.33,0.09,0.45-0.03c0.12-0.12,0.14-0.32,0.03-0.45c-0.08-0.11-0.81-1.13-1.31-2.47
		c-0.15-0.41-0.26-0.78-0.37-1.14c-0.17-0.58-0.34-1.14-0.67-1.78c0.07,0.08,0.15,0.16,0.22,0.24c0.87,0.98,1.58,1.96,1.93,2.45
		c0.78,1.11,1.66,1.76,1.76,1.83c0.12,0.08,0.28,0.09,0.4,0c0.12-0.08,0.18-0.23,0.14-0.37l-1.52-5.91l3.16,5.24
		c0.09,0.15,0.27,0.21,0.43,0.14c0.16-0.07,0.25-0.24,0.21-0.41c-0.01-0.05-0.31-1.32-0.26-2.78c0.01-0.43,0.05-0.82,0.09-1.19
		c0.06-0.61,0.13-1.19,0.07-1.9c0.04,0.1,0.07,0.2,0.11,0.3c0.43,1.24,0.71,2.41,0.84,3c0.29,1.32,0.86,2.26,0.92,2.37
		c0.08,0.12,0.23,0.18,0.37,0.16c0.14-0.03,0.25-0.15,0.27-0.29l0.85-6l0.88,6c0.03,0.17,0.17,0.3,0.35,0.3
		c0.17,0,0.32-0.13,0.35-0.3c0.01-0.05,0.21-1.33,0.81-2.68c0.18-0.39,0.36-0.73,0.54-1.06c0.29-0.54,0.57-1.05,0.79-1.74
		c0,0.11-0.01,0.22-0.01,0.32c-0.07,1.31-0.26,2.5-0.36,3.1c-0.24,1.38-0.05,2.49-0.04,2.54c0.02,0.14,0.14,0.26,0.28,0.28
		c0.14,0.03,0.29-0.04,0.36-0.16l3.13-5.25l-1.49,5.92c-0.04,0.17,0.05,0.34,0.2,0.41c0.16,0.07,0.35,0.01,0.43-0.14
		c0.07-0.12,0.74-1.18,1.78-2.16c0.31-0.29,0.61-0.53,0.91-0.77c0.47-0.38,0.93-0.75,1.39-1.3c-0.04,0.1-0.09,0.19-0.14,0.29
		c-0.57,1.18-1.2,2.21-1.52,2.72c-0.74,1.17-1,2.28-1.01,2.33c-0.03,0.14,0.03,0.29,0.15,0.37c0.12,0.08,0.28,0.07,0.4-0.01
		l4.89-3.65l-3.64,4.91c-0.1,0.14-0.09,0.33,0.03,0.45c0.12,0.12,0.32,0.14,0.45,0.03c0.01-0.01,1.08-0.79,2.47-1.31
		c0.4-0.15,0.77-0.26,1.13-0.37c0.58-0.17,1.15-0.34,1.78-0.67c-0.08,0.07-0.16,0.15-0.24,0.22c-0.98,0.87-1.96,1.58-2.45,1.93
		c-1.14,0.8-1.8,1.72-1.83,1.76c-0.08,0.12-0.09,0.28,0,0.4c0.08,0.12,0.24,0.18,0.37,0.14l5.91-1.51l-5.24,3.14
		c-0.15,0.09-0.21,0.27-0.14,0.43c0.07,0.16,0.24,0.25,0.41,0.21c0.14-0.03,1.36-0.31,2.78-0.27c0.44,0.01,0.82,0.05,1.19,0.09
		c0.61,0.06,1.19,0.13,1.9,0.07c-0.1,0.04-0.2,0.08-0.3,0.11c-1.24,0.43-2.42,0.71-3,0.84c-1.37,0.31-2.33,0.9-2.37,0.93
		c-0.12,0.08-0.19,0.23-0.16,0.37c0.03,0.14,0.15,0.25,0.29,0.27l6.04,0.87l-6.05,0.9c-0.17,0.03-0.3,0.17-0.3,0.34
		c0,0.17,0.13,0.32,0.3,0.35c0.14,0.02,1.37,0.23,2.67,0.82c0.39,0.18,0.73,0.36,1.06,0.55c0.53,0.29,1.05,0.57,1.73,0.79
		c-0.11,0-0.21-0.01-0.32-0.01c-1.31-0.08-2.5-0.27-3.1-0.37l-0.16-0.03c-1.09-0.48-2.22-0.72-3.34-0.74c0-0.01,0-0.02-0.01-0.03
		c-0.05-0.23-0.22-0.42-0.45-0.5c-1.64-0.57-3.18-0.86-4.58-0.87c-0.51,0-1,0.03-1.47,0.1c-0.01-0.06-0.03-0.13-0.06-0.18
		c-0.1-0.21-0.3-0.35-0.53-0.38c-1.73-0.23-3.3-0.21-4.67,0.06c-0.55,0.11-1.06,0.26-1.55,0.44c-0.02-0.15-0.08-0.29-0.18-0.4
		c-0.15-0.16-0.35-0.24-0.56-0.22c-1.74,0.14-3.26,0.5-4.54,1.05c-0.34,0.15-0.67,0.31-0.98,0.49c-0.02-0.18-0.11-0.35-0.25-0.46
		c-0.17-0.14-0.41-0.19-0.62-0.13c-1.69,0.46-3.15,1.11-4.32,1.93l-0.07,0.05c-0.32,0.02-0.64,0.02-0.94,0.02
		c-0.25-0.01-1.1-0.08-1.19-0.09C30.71,39.35,30.12,39.29,29.41,39.35 M31.04,41.1c0.01-0.01,0.03-0.01,0.04,0s0.02,0.02,0.02,0.03
		c-0.06,0.93-0.34,2.35-1.33,3.88c-0.11,0.17-0.11,0.39,0.01,0.57c0.12,0.17,0.32,0.25,0.52,0.21c0.01,0,1.31-0.26,2.63-0.16
		c0.01,0,0.03,0.01,0.03,0.03c0,0.01,0,0.03-0.01,0.04c-1.14,0.91-3.37,2.39-5.76,2.39c-0.09,0-0.17,0-0.26-0.01
		c-0.02,0-0.03-0.02-0.03-0.03C26.83,46.91,27.11,43.93,31.04,41.1 M22.72,49.92c0.2-0.9,0.59-1.79,1.15-2.65
		c0.56-0.85,1.3-1.69,2.19-2.47c0.01-0.01,0.02-0.01,0.04-0.01c0.01,0.01,0.02,0.02,0.02,0.03c0.03,0.93-0.11,2.37-0.95,3.99
		c-0.1,0.19-0.07,0.41,0.07,0.57c0.14,0.16,0.35,0.22,0.55,0.15c0.01,0,1.25-0.42,2.56-0.46c0.01,0,0.03,0.01,0.03,0.02
		c0.01,0.01,0,0.03-0.01,0.04c-0.49,0.49-1,0.93-1.51,1.33c-1.04,0.8-2.57,1.73-4.04,1.73c-0.06,0-0.12,0-0.18-0.01
		c-0.02,0-0.03-0.01-0.03-0.03C22.57,51.84,22.48,51,22.72,49.92 M21.37,49.21c0.01-0.01,0.02-0.01,0.04-0.01
		c0.01,0,0.02,0.01,0.03,0.03c0.18,0.91,0.27,2.36-0.3,4.09c-0.07,0.21,0,0.44,0.18,0.57c0.18,0.13,0.41,0.14,0.6,0.01
		c0.01-0.01,1.13-0.77,2.55-0.89c0.01,0,0.03,0.01,0.03,0.02c0.01,0.01,0.01,0.03,0,0.04c-0.92,1.29-2.84,3.52-5.32,3.94
		c0,0,0,0-0.01,0c-0.02,0-0.03-0.01-0.03-0.02C18.78,55.89,18.28,52.94,21.37,49.21 M16.04,57.2c0.3-0.97,0.78-1.97,1.42-2.97
		c0.01-0.01,0.02-0.02,0.03-0.02c0.01,0,0.02,0.01,0.03,0.02c0.29,0.89,0.56,2.32,0.2,4.1c-0.04,0.22,0.06,0.44,0.26,0.55
		c0.2,0.11,0.44,0.07,0.6-0.09c0.01-0.01,1.05-1.02,2.49-1.22c0.01,0,0.03,0,0.03,0.01c0.01,0.01,0.01,0.02,0,0.04
		c-0.2,0.41-0.53,1.03-1,1.67c-1.1,1.5-2.4,2.48-3.89,2.92c0,0-0.01,0-0.01,0c-0.01,0-0.03-0.01-0.03-0.02
		c-0.13-0.29-0.45-1.07-0.52-2.15C15.62,59.14,15.74,58.18,16.04,57.2 M13.16,62.72c0.15-1,0.47-2.06,0.96-3.14
		c0.01-0.01,0.02-0.02,0.03-0.02h0c0.01,0,0.03,0.01,0.03,0.02c0.42,0.83,0.9,2.21,0.81,4.03c-0.01,0.2,0.1,0.39,0.29,0.48
		c0.18,0.09,0.4,0.06,0.56-0.07c0.05-0.04,1.13-0.97,2.39-1.52c0.01-0.01,0.03,0,0.04,0.01c0.01,0.01,0.01,0.02,0.01,0.04
		c-0.13,0.51-0.32,1.02-0.55,1.5c-0.77,1.58-2,2.79-3.64,3.61c0,0-0.01,0-0.02,0c-0.01,0-0.02-0.01-0.03-0.02
		c-0.21-0.33-0.61-1.03-0.82-2.04C13.03,64.7,13.01,63.73,13.16,62.72 M11.61,65.3c0-0.01,0.02-0.02,0.03-0.02
		c0.01,0,0.03,0,0.03,0.02c0.52,0.77,1.17,2.08,1.32,3.9c0.02,0.21,0.16,0.38,0.35,0.45c0.2,0.06,0.41,0,0.55-0.16
		c0.01-0.01,0.92-1.09,2.18-1.81c0.01-0.01,0.03-0.01,0.04,0c0.01,0.01,0.02,0.02,0.02,0.03c-0.06,0.54-0.18,1.08-0.35,1.6
		c-0.56,1.71-1.63,3.06-3.17,4.02c-0.01,0-0.01,0.01-0.02,0.01c-0.01,0-0.02,0-0.03-0.01c-0.21-0.24-0.72-0.91-1.08-1.93
		c-0.3-0.87-0.45-1.83-0.43-2.85C11.07,67.52,11.26,66.43,11.61,65.3 M9.84,71.29c0-0.01,0.01-0.02,0.03-0.03
		c0.01,0,0.03,0,0.04,0.01c0.62,0.71,1.43,1.93,1.79,3.7c0.04,0.2,0.2,0.36,0.4,0.4c0.2,0.04,0.41-0.04,0.52-0.21
		c0.03-0.05,0.83-1.18,1.89-2.01c0.01-0.01,0.03-0.01,0.04,0c0.01,0.01,0.02,0.02,0.02,0.03c-0.03,0.53-0.1,1.07-0.22,1.59
		c-0.4,1.74-1.25,3.2-2.53,4.34c-0.01,0.01-0.02,0.01-0.02,0.01c-0.01,0-0.02,0-0.02-0.01c-0.29-0.26-0.84-0.85-1.3-1.77
		c-0.41-0.82-0.67-1.76-0.78-2.78C9.59,73.56,9.64,72.46,9.84,71.29 M8.94,77.3c0-0.01,0.01-0.03,0.02-0.03c0.01,0,0.03,0,0.04,0.01
		c0.65,0.68,1.51,1.86,1.96,3.62c0.05,0.21,0.23,0.36,0.45,0.38c0.21,0.02,0.42-0.1,0.51-0.29c0.01-0.01,0.57-1.18,1.59-2.1
		c0.01-0.01,0.03-0.01,0.04-0.01c0.01,0.01,0.02,0.02,0.02,0.03c0,0.61-0.05,1.22-0.15,1.8c-0.3,1.83-1.02,3.28-2.13,4.31
		c-0.01,0.01-0.02,0.01-0.02,0.01c-0.01,0-0.02,0-0.02-0.01c-0.24-0.2-0.87-0.77-1.4-1.72c-0.45-0.81-0.75-1.73-0.91-2.74
		C8.79,79.57,8.79,78.47,8.94,77.3 M8.44,83.61c0-0.01,0.01-0.03,0.02-0.03c0.01,0,0.03,0,0.04,0.01c0.13,0.12,0.26,0.25,0.38,0.38
		c0.56,0.6,1.32,1.62,1.8,3.11c0.07,0.22,0.29,0.37,0.52,0.35c0.24-0.02,0.43-0.19,0.47-0.43v0c0-0.01,0.23-1.29,1.31-2.27
		c0.01-0.01,0.02-0.01,0.04-0.01c0.01,0,0.02,0.02,0.02,0.03c0.11,0.71,0.21,1.81,0.01,2.98c-0.24,1.4-0.83,2.57-1.76,3.46
		c-0.01,0.01-0.02,0.01-0.03,0.01c-0.01,0-0.01,0-0.02-0.01C10.3,90.53,8.14,88.43,8.44,83.61 M8.19,89.74
		c0.01-0.01,0.03-0.01,0.04,0c0.14,0.11,0.28,0.22,0.42,0.34c0.62,0.54,1.49,1.48,2.12,2.91c0.08,0.18,0.26,0.3,0.46,0.3
		c0,0,0.01,0,0.01,0h0c0.2,0,0.39-0.13,0.47-0.32c0.01-0.01,0.56-1.35,1.46-2.42c0.01-0.01,0.02-0.02,0.04-0.01
		c0.01,0,0.02,0.01,0.03,0.03c0.28,1.29,0.46,3.84-1.45,6.43c-0.01,0.01-0.02,0.01-0.03,0.01c-0.01,0-0.01,0-0.02,0
		c-1-0.58-3.36-2.46-3.57-7.24C8.17,89.76,8.18,89.75,8.19,89.74 M8.51,96.11c0-0.01,0-0.03,0.01-0.04c0.01-0.01,0.03-0.01,0.04,0
		c0.84,0.42,2.05,1.25,3.07,2.76c0.11,0.17,0.32,0.25,0.52,0.22c0.2-0.04,0.36-0.19,0.4-0.39v0l0.03,0.01l-0.03-0.01
		c0.01-0.06,0.34-1.49,1.04-2.67c0.01-0.01,0.02-0.02,0.03-0.02c0.01,0,0.02,0.01,0.03,0.02c0.25,0.52,0.43,1.07,0.55,1.63
		c0.37,1.73,0.08,3.42-0.85,5.01c-0.01,0.01-0.02,0.02-0.03,0.02c0,0-0.01,0-0.01,0c-0.3-0.11-1.09-0.44-1.91-1.17
		c-0.7-0.61-1.29-1.38-1.78-2.28C9.14,98.3,8.77,97.27,8.51,96.11 M9.96,102.03c0-0.01,0-0.03,0.01-0.04
		c0.01-0.01,0.03-0.01,0.04-0.01c0.16,0.07,0.33,0.14,0.49,0.23c0.73,0.37,1.81,1.07,2.78,2.31c0.13,0.16,0.34,0.23,0.53,0.18
		c0.2-0.05,0.34-0.22,0.37-0.42c0-0.01,0.21-1.42,0.79-2.64c0.01-0.01,0.02-0.02,0.03-0.02c0.01,0,0.03,0.01,0.03,0.02
		c0.6,1.31,1.43,3.91,0.24,6.53c-0.01,0.01-0.02,0.02-0.03,0.02c0,0-0.01,0-0.01,0C14.11,107.87,11.35,106.64,9.96,102.03
		 M13.52,110.79c-0.64-0.79-1.21-1.74-1.68-2.82c-0.01-0.01,0-0.03,0.01-0.04c0.01-0.01,0.02-0.01,0.04-0.01
		c0.17,0.05,0.34,0.11,0.51,0.17c0.77,0.29,1.92,0.86,3.03,1.98c0.14,0.15,0.36,0.19,0.55,0.11c0.19-0.08,0.32-0.26,0.32-0.46
		c0-0.01,0.04-1.4,0.46-2.67c0-0.01,0.02-0.02,0.03-0.02c0.01,0,0.03,0.01,0.03,0.02c0.29,0.51,0.54,1.04,0.74,1.57
		c0.64,1.72,0.73,3.35,0.27,4.86c0,0.02-0.02,0.03-0.03,0.03c0,0,0,0-0.01,0c-0.31-0.05-1.15-0.24-2.09-0.79
		C14.91,112.24,14.17,111.59,13.52,110.79 M14.39,113.6c-0.01-0.01-0.01-0.03,0-0.04c0.01-0.01,0.02-0.02,0.04-0.01
		c0.93,0.16,2.33,0.58,3.77,1.72c0.16,0.13,0.38,0.15,0.57,0.05c0.18-0.1,0.28-0.3,0.26-0.51c-0.01-0.05-0.14-1.31,0.13-2.65
		c0-0.01,0.01-0.02,0.03-0.03c0.01,0,0.03,0,0.04,0.01c0.34,0.49,0.64,1.01,0.9,1.52c0.57,1.14,1.17,2.89,0.87,4.69
		c0,0.02-0.02,0.03-0.04,0.03h0c-0.39-0.02-1.2-0.12-2.16-0.54c-0.85-0.38-1.66-0.93-2.4-1.65C15.66,115.5,14.98,114.62,14.39,113.6
		 M26.15,123.83c0-0.01-0.51-1.24-0.63-2.59c0-0.01,0.01-0.03,0.02-0.03c0.01-0.01,0.03,0,0.04,0c1.19,1,3.17,3.08,3.05,5.83
		c0,0.02-0.01,0.03-0.03,0.03c-0.14,0.03-0.42,0.06-0.8,0.06c-0.33,0-0.75-0.03-1.21-0.12c-1.71-0.34-3.47-1.35-5.23-3
		c-0.01-0.01-0.01-0.02-0.01-0.04c0-0.01,0.02-0.02,0.03-0.02c0.93-0.12,2.41-0.12,4.12,0.55c0.19,0.07,0.41,0.03,0.55-0.12
		C26.19,124.24,26.23,124.02,26.15,123.83 M21.51,120.15c0.18,0.11,0.4,0.11,0.57-0.02c0.17-0.12,0.25-0.34,0.2-0.54
		c0-0.01-0.32-1.27-0.17-2.62c0-0.01,0.01-0.03,0.03-0.03c0.01,0,0.03,0,0.04,0.01c0.97,1.17,2.59,3.52,2.44,5.99
		c0,0.02-0.02,0.03-0.03,0.03c-0.07,0-0.15,0.01-0.24,0.01c-0.44,0-1.14-0.06-1.97-0.32c-0.89-0.29-1.75-0.76-2.56-1.39
		c-0.8-0.63-1.56-1.43-2.26-2.39c-0.01-0.01-0.01-0.03,0-0.04c0.01-0.01,0.02-0.02,0.03-0.02
		C18.52,118.89,19.97,119.17,21.51,120.15 M41.49,106.75c-0.16,0.11-0.32,0.22-0.47,0.32c-1.09,0.76-1.77,1.58-2.02,2.41
		c-0.14-0.03-0.28-0.06-0.4-0.1c-0.84-0.28-0.88-0.7-0.89-0.85c-0.02-0.43,0.2-0.82,0.84-1.43c0.75-0.72,1.37-1.07,1.91-1.07
		c0.19,0,0.38,0.04,0.55,0.13c0.26,0.13,0.43,0.28,0.48,0.42C41.49,106.64,41.5,106.7,41.49,106.75 M42.54,110.97
		c-0.33,0.05-1.24,0.16-1.69-0.15c-0.11-0.07-0.22-0.19-0.25-0.48c-0.07-0.71,0.85-1.47,1.4-1.86c0.87-0.61,1.46-0.95,1.95-0.95
		c0.25,0,0.46,0.09,0.67,0.27c0.18,0.15,0.26,0.29,0.26,0.4c-0.01,0.23-0.3,0.57-0.56,0.77C43.46,109.56,42.88,110.22,42.54,110.97
		 M46.87,111.11c-0.33,0.26-1.44,0.95-2.24,0.79c-0.13-0.03-0.32-0.08-0.51-0.29c0.37-0.77,1.18-1.28,1.91-1.71
		c0.96-0.56,1.38-0.23,1.39-0.22c0.28,0.27,0.27,0.43,0.26,0.48c-0.03,0.34-0.52,0.76-0.74,0.9
		C46.92,111.08,46.9,111.09,46.87,111.11 M37.76,105.51c-0.13,0.11-0.26,0.23-0.4,0.36c-0.5,0.48-1.04,1.08-1.26,1.86
		c-0.13-0.01-0.24-0.02-0.36-0.04c-0.55-0.09-0.85-0.26-0.91-0.4c-0.04-0.08-0.14-0.33,0.18-0.75c0.46-0.61,1.47-1.1,2.2-1.1
		c0.07,0,0.13,0,0.2,0.01c0.03,0,0.05,0.01,0.07,0.01C37.54,105.47,37.64,105.49,37.76,105.51 M59.69,106.57
		c-0.25,0.24-0.63,0.36-1.13,0.38c-0.71-0.96-2.56-3.22-4.91-4.37c-0.2-0.1-0.43-0.11-0.65-0.04c-0.22,0.07-0.39,0.23-0.49,0.43
		c-0.1,0.2-0.11,0.44-0.04,0.65c0.07,0.22,0.23,0.39,0.43,0.49c1.99,0.97,3.63,2.97,4.28,3.84c-0.07,0.14-0.15,0.27-0.25,0.39
		c-0.32,0.37-0.79,0.54-1.4,0.54c-0.22-0.47-0.6-1.02-1.14-1.64c-0.72-0.84-2.19-1.87-2.25-1.91c-0.19-0.13-0.41-0.18-0.64-0.14
		c-0.22,0.04-0.42,0.16-0.55,0.35c-0.13,0.19-0.18,0.41-0.14,0.64c0.04,0.22,0.16,0.42,0.35,0.55c0.38,0.26,1.46,1.07,1.94,1.63
		c0.57,0.66,0.8,1.06,0.89,1.25c-0.08,0.15-0.2,0.36-0.39,0.54c-0.31,0.3-0.67,0.41-1.13,0.36c-0.22-0.48-0.69-1.39-1.55-2.35
		c-0.31-0.35-0.85-0.38-1.2-0.07c-0.17,0.15-0.27,0.36-0.28,0.59c-0.01,0.23,0.06,0.45,0.21,0.62c0.59,0.67,0.96,1.28,1.17,1.71
		c-0.14,0.09-0.29,0.16-0.44,0.22c-0.43,0.17-0.89,0.23-1.37,0.17c0.21-0.33,0.34-0.68,0.38-1.03c0.05-0.47-0.04-1.18-0.76-1.88
		c-0.37-0.37-1.09-0.71-2.05-0.55c-0.07-0.52-0.35-1-0.83-1.41c-0.78-0.67-1.68-0.86-2.68-0.55v0c-0.16-0.39-0.51-0.91-1.29-1.3
		c-0.71-0.36-1.49-0.41-2.28-0.16c-0.7-0.59-1.61-0.7-1.87-0.72c-1.13-0.15-2.59,0.38-3.56,1.3c-4.86,2.6-11.11,5.42-13.66,6.54
		c-1.33-2.51-2.47-5.21-3.38-8.05c-0.25-0.77-0.48-1.57-0.7-2.36c7.15-0.82,12.89-1.66,17.09-2.5c4.4-0.88,7.23-1.77,8.68-2.75
		c1.67-1.18,2.82-1.75,4.41-1.62c0.38,0.03,0.72,0.07,1.04,0.11c-0.3,0.13-0.59,0.29-0.87,0.49c-0.67,0.47-1.08,0.81-1.45,1.1
		c-0.37,0.3-0.66,0.54-1.12,0.84c-0.32,0.21-0.75,0.42-1.18,0.63c-0.99,0.49-1.78,0.87-2.03,1.55c-0.27,0.73-0.16,1.37,0.34,2.07
		c0.76,1.07,2,1,2.99,0.94c1.11-0.06,2.47-0.47,3.46-1.04c0.36-0.21,0.67-0.41,0.95-0.6c0.43-0.28,0.8-0.53,1.06-0.58
		c0.02,0,0.03-0.01,0.05-0.01c0.86-0.24,1.83-0.14,2.98,0.3c1.03,0.4,2.05,1.02,2.98,1.63c2.23,1.45,3.88,3.4,4.37,4.02
		C60.04,106.02,59.94,106.34,59.69,106.57 M62.78,105.91c-0.73-0.52-1.24-1.05-1.48-1.32c0,0-0.01-0.01-0.01-0.01l-0.03-0.03
		c-0.07-0.08-0.11-0.13-0.12-0.15c-0.77-0.92-2.37-2.66-4.51-4.05c-1.57-1.02-4.49-2.92-7.32-2.15c-0.57,0.13-1.05,0.45-1.62,0.82
		c-0.27,0.18-0.54,0.36-0.86,0.54c-0.89,0.51-2,0.78-2.71,0.82c-0.81,0.05-1.31,0.05-1.51-0.23c-0.18-0.26-0.17-0.35-0.15-0.43
		c0.18-0.17,0.85-0.5,1.21-0.67c0.47-0.23,0.95-0.47,1.36-0.73c0.54-0.35,0.89-0.64,1.27-0.94c0.34-0.28,0.73-0.59,1.35-1.03
		c0.85-0.6,1.78-0.62,3.18-0.64l0.03,0c0.21,0,0.43-0.01,0.66-0.02c0.17,0,0.34-0.01,0.53-0.02c1.5-0.07,2.86,0.42,4.92,1.16
		c0.6,0.22,1.27,0.46,2.04,0.72c0.12,0.04,2.88,0.91,6.65,1.8c3.27,0.78,8.09,1.76,12.62,2.06c-0.2,0.73-0.42,1.46-0.64,2.16
		c-0.94,2.94-2.13,5.74-3.53,8.32C71.85,110.96,66.38,108.58,62.78,105.91 M73.34,124.02c-2.18,2.05-4.05,2.76-5.23,2.99
		c-0.47,0.09-0.88,0.13-1.22,0.13c-0.35,0-0.62-0.03-0.8-0.06c-0.02,0-0.03-0.02-0.03-0.03c-0.07-1.56,0.52-3.08,1.77-4.52
		c0.39-0.45,0.83-0.87,1.31-1.27c0.01-0.01,0.03-0.01,0.04,0c0.01,0.01,0.02,0.02,0.02,0.04c-0.14,1.3-0.65,2.54-0.65,2.56
		c-0.08,0.19-0.04,0.41,0.11,0.55c0.14,0.15,0.36,0.19,0.55,0.12c1.7-0.67,3.18-0.67,4.11-0.55c0.01,0,0.03,0.01,0.03,0.02
		C73.35,124,73.35,124.01,73.34,124.02 M77.2,118.89c-0.7,0.95-1.46,1.75-2.26,2.38c-0.81,0.64-1.67,1.11-2.56,1.39
		c-0.83,0.27-1.52,0.32-1.97,0.32c-0.09,0-0.17,0-0.24-0.01c-0.02,0-0.03-0.02-0.03-0.03c-0.11-1.5,0.35-3.06,1.35-4.62
		c0.31-0.49,0.67-0.96,1.06-1.4c0.01-0.01,0.02-0.02,0.04-0.01c0.01,0,0.02,0.02,0.02,0.03c0.12,1.33-0.14,2.66-0.14,2.67
		c-0.04,0.2,0.04,0.41,0.21,0.52c0.17,0.12,0.39,0.12,0.56,0.01c1.54-0.98,2.98-1.26,3.93-1.32c0.01,0,0.03,0.01,0.03,0.02
		C77.21,118.86,77.2,118.88,77.2,118.89 M78.36,116.21c-0.74,0.72-1.55,1.27-2.4,1.65c-1,0.44-1.85,0.53-2.16,0.54h0
		c-0.02,0-0.03-0.01-0.04-0.03c-0.26-1.48,0.02-3.08,0.85-4.73c0.26-0.51,0.56-1.02,0.91-1.51c0.01-0.01,0.02-0.02,0.04-0.01
		c0.01,0,0.02,0.01,0.03,0.03c0.26,1.3,0.14,2.66,0.14,2.68c-0.02,0.2,0.08,0.4,0.26,0.5c0.18,0.1,0.4,0.08,0.56-0.05
		c1.42-1.13,2.83-1.56,3.77-1.72c0.01,0,0.03,0,0.04,0.01c0.01,0.01,0.01,0.03,0,0.04C79.77,114.62,79.09,115.5,78.36,116.21
		 M81.19,110.71c-0.65,0.8-1.39,1.44-2.19,1.91c-0.9,0.53-1.69,0.72-2.08,0.79c0,0,0,0-0.01,0c-0.02,0-0.03-0.01-0.03-0.03
		c-0.44-1.51-0.35-3.15,0.28-4.87c0.19-0.52,0.43-1.03,0.7-1.53c0.01-0.01,0.02-0.02,0.03-0.02c0.01,0,0.03,0.01,0.03,0.02
		c0.41,1.28,0.48,2.64,0.48,2.65c0.01,0.21,0.14,0.39,0.34,0.46c0.19,0.07,0.41,0.02,0.55-0.13c1.13-1.23,2.27-1.8,3.02-2.05
		c0.18-0.06,0.37-0.11,0.55-0.16c0.01,0,0.03,0,0.04,0.01c0.01,0.01,0.01,0.02,0.01,0.04C82.43,108.93,81.85,109.91,81.19,110.71
		 M83.35,104.97c-0.57,0.86-1.23,1.57-1.98,2.12c-0.88,0.64-1.69,0.91-2,0.99c0,0-0.01,0-0.01,0c-0.01,0-0.03-0.01-0.03-0.02
		c-0.72-1.75-0.51-3.63-0.21-4.89c0.14-0.57,0.32-1.14,0.55-1.71c0-0.01,0.02-0.02,0.03-0.02h0c0.01,0,0.03,0.01,0.03,0.02
		c0.54,1.25,0.73,2.67,0.74,2.72c0.03,0.2,0.17,0.37,0.37,0.43c0.2,0.06,0.41-0.01,0.54-0.17c1.15-1.41,2.43-2.13,3.31-2.48
		c0.01-0.01,0.03,0,0.04,0.01c0.01,0.01,0.01,0.02,0.01,0.04C84.38,103.12,83.91,104.12,83.35,104.97 M84.94,98.98
		c-0.46,0.92-1.03,1.71-1.7,2.34c-0.76,0.72-1.49,1.07-1.85,1.22c0,0-0.01,0-0.01,0c-0.01,0-0.02-0.01-0.03-0.02
		c-0.78-1.39-1.06-3.05-0.84-4.92c0.07-0.58,0.19-1.16,0.35-1.73c0-0.01,0.02-0.02,0.03-0.03c0.01,0,0.03,0,0.04,0.02
		c0.7,1.19,1.07,2.66,1.07,2.67c0.05,0.2,0.21,0.35,0.42,0.38c0.2,0.03,0.4-0.06,0.51-0.23c0.96-1.54,2.15-2.41,2.98-2.86
		c0.01-0.01,0.03-0.01,0.04,0c0.01,0.01,0.02,0.02,0.01,0.04C85.73,97.02,85.39,98.07,84.94,98.98"/>
	<path class="st3" d="M58.28,38.53c1.12,0.01,2.24,0.26,3.34,0.74l0.16,0.03c0.6,0.11,1.79,0.29,3.1,0.37
		c0.11,0.01,0.21,0.01,0.32,0.01c-0.68-0.22-1.2-0.5-1.73-0.79c-0.33-0.18-0.67-0.37-1.06-0.55c-1.3-0.59-2.54-0.8-2.67-0.82
		c-0.17-0.02-0.3-0.17-0.3-0.35c0-0.17,0.13-0.32,0.3-0.34l6.04-0.9l-6.04-0.87c-0.14-0.02-0.26-0.13-0.29-0.27
		c-0.03-0.14,0.03-0.29,0.16-0.37c0.04-0.02,0.99-0.62,2.37-0.93c0.59-0.13,1.76-0.41,3-0.84c0.1-0.03,0.2-0.07,0.3-0.11
		c-0.72,0.06-1.3,0-1.9-0.07c-0.37-0.04-0.75-0.08-1.19-0.09c-1.42-0.05-2.65,0.23-2.78,0.27c-0.17,0.04-0.34-0.04-0.41-0.21
		c-0.06-0.16,0-0.34,0.14-0.43l5.24-3.14l-5.91,1.51c-0.14,0.04-0.29-0.02-0.37-0.14c-0.08-0.12-0.08-0.28,0-0.4
		c0.03-0.04,0.69-0.96,1.83-1.76c0.5-0.35,1.47-1.06,2.45-1.93c0.08-0.07,0.16-0.14,0.24-0.22c-0.64,0.33-1.2,0.5-1.78,0.67
		c-0.36,0.11-0.73,0.22-1.13,0.37c-1.39,0.53-2.46,1.31-2.47,1.31c-0.14,0.1-0.33,0.09-0.46-0.03c-0.12-0.12-0.14-0.32-0.03-0.45
		l3.64-4.91l-4.89,3.65c-0.12,0.09-0.28,0.09-0.4,0.01c-0.12-0.08-0.18-0.23-0.15-0.37c0.01-0.05,0.27-1.16,1.01-2.33
		c0.32-0.51,0.95-1.54,1.52-2.72c0.05-0.1,0.09-0.19,0.14-0.29c-0.46,0.55-0.92,0.92-1.39,1.3c-0.3,0.24-0.59,0.48-0.91,0.77
		c-1.04,0.98-1.7,2.04-1.78,2.16c-0.09,0.15-0.28,0.21-0.43,0.14c-0.16-0.07-0.25-0.24-0.2-0.41l1.49-5.92l-3.13,5.25
		c-0.07,0.12-0.22,0.19-0.36,0.16c-0.14-0.03-0.26-0.14-0.28-0.28c-0.01-0.05-0.2-1.16,0.04-2.54c0.1-0.6,0.29-1.79,0.36-3.1
		c0.01-0.11,0.01-0.21,0.01-0.32c-0.22,0.69-0.5,1.2-0.79,1.74c-0.18,0.33-0.36,0.67-0.54,1.06c-0.61,1.35-0.8,2.62-0.81,2.68
		c-0.03,0.17-0.17,0.3-0.35,0.3c-0.17,0-0.32-0.13-0.35-0.3l-0.88-6l-0.85,6c-0.02,0.15-0.13,0.26-0.27,0.29
		c-0.14,0.03-0.29-0.03-0.37-0.16c-0.06-0.1-0.63-1.04-0.92-2.37c-0.13-0.59-0.41-1.77-0.84-3c-0.03-0.1-0.07-0.2-0.11-0.3
		c0.06,0.72,0,1.3-0.07,1.9c-0.04,0.37-0.08,0.75-0.09,1.19c-0.05,1.47,0.25,2.73,0.26,2.78c0.04,0.17-0.04,0.34-0.21,0.41
		c-0.16,0.07-0.34,0.01-0.43-0.14l-3.16-5.24l1.52,5.91c0.04,0.14-0.02,0.29-0.14,0.37c-0.12,0.08-0.28,0.08-0.4,0
		c-0.1-0.07-0.98-0.72-1.76-1.83c-0.35-0.5-1.06-1.47-1.93-2.45c-0.07-0.08-0.14-0.16-0.22-0.24c0.33,0.64,0.49,1.2,0.67,1.78
		c0.11,0.36,0.22,0.73,0.37,1.14c0.5,1.34,1.23,2.36,1.31,2.47c0.1,0.14,0.09,0.33-0.03,0.45c-0.12,0.12-0.32,0.14-0.45,0.03
		l-4.92-3.64l3.66,4.89c0.09,0.12,0.09,0.28,0.01,0.4c-0.08,0.12-0.23,0.18-0.37,0.15c-0.05-0.01-1.14-0.26-2.33-1.02
		c-0.51-0.32-1.54-0.95-2.72-1.53c-0.1-0.05-0.19-0.09-0.29-0.14c0.55,0.46,0.92,0.92,1.3,1.39c0.24,0.29,0.48,0.59,0.77,0.91
		c1.02,1.09,2.15,1.77,2.16,1.78c0.15,0.09,0.21,0.27,0.14,0.43c-0.07,0.16-0.24,0.25-0.41,0.2l-5.93-1.49L35.55,32
		c0.13,0.07,0.19,0.22,0.17,0.36c-0.03,0.14-0.14,0.26-0.29,0.28c-0.05,0.01-1.16,0.2-2.54-0.05c-0.59-0.1-1.79-0.29-3.1-0.37
		c-0.11-0.01-0.21-0.01-0.32-0.01c0.68,0.22,1.2,0.5,1.73,0.79c0.31,0.17,0.66,0.36,1.06,0.54c1.36,0.61,2.66,0.81,2.67,0.81
		c0.17,0.03,0.3,0.17,0.3,0.35c0,0.17-0.13,0.32-0.3,0.34l-6.05,0.89l6.05,0.88c0.14,0.02,0.26,0.13,0.29,0.27
		c0.03,0.14-0.03,0.29-0.16,0.37c-0.04,0.02-1,0.63-2.36,0.93c-0.59,0.13-1.77,0.42-3,0.85c-0.1,0.03-0.2,0.07-0.3,0.11
		c0.72-0.06,1.3,0,1.9,0.06c0.09,0.01,0.93,0.08,1.19,0.09c0.3,0.01,0.62,0,0.94-0.02l0.07-0.05c1.18-0.82,2.63-1.46,4.32-1.93
		c0.22-0.06,0.45-0.01,0.62,0.13c0.14,0.12,0.23,0.28,0.25,0.46c0.31-0.18,0.64-0.34,0.98-0.49c1.28-0.56,2.81-0.91,4.54-1.05
		c0.22-0.02,0.42,0.06,0.56,0.22c0.1,0.11,0.17,0.25,0.18,0.4c0.48-0.19,1-0.34,1.55-0.44c1.37-0.27,2.94-0.29,4.67-0.06
		c0.23,0.03,0.43,0.17,0.53,0.38c0.03,0.06,0.05,0.12,0.06,0.18c0.47-0.07,0.96-0.1,1.47-0.1c1.4,0.01,2.94,0.3,4.58,0.87
		c0.23,0.08,0.39,0.27,0.45,0.5C58.28,38.51,58.28,38.52,58.28,38.53"/>
	<path class="st2" d="M49.48,30.89c5.88-0.94,6.53,0.76,6.53,0.76s0.16,0.38,0.63,0.27c0,0,0.4-0.04,0.2-0.52
		c0,0-0.65-1.92-3.77-2.26c0,0-1.61-0.21-3.38,0.1c-0.52,0.09-0.67,1.24-0.67,1.24C48.95,31,49.48,30.89,49.48,30.89"/>
	<path class="st2" d="M44.47,32.03c-0.72-0.33-2.36-0.26-2.36-0.26c-2.66,0.09-3.36,1.74-3.36,1.74c-0.23,0.55,0.23,0.6,0.23,0.6
		c0.55,0.14,0.74-0.31,0.74-0.31s0.15-0.47,1.24-0.74c-0.06,0.16-0.1,0.33-0.1,0.5c0,0.75,0.61,1.36,1.36,1.36
		c0.75,0,1.36-0.61,1.36-1.36c0-0.19-0.04-0.37-0.11-0.53c0.38,0.14,0.74,0.41,0.97,0.88c0.09,0.19,0.3,0.28,0.8,0.28
		c0.54,0,0.41-0.36,0.41-0.36C45.35,32.44,44.47,32.03,44.47,32.03"/>
	<path class="st2" d="M49.36,34.19c0.51,0,0.71-0.08,0.8-0.28c0.23-0.47,0.6-0.74,0.97-0.88c-0.07,0.16-0.11,0.35-0.11,0.54
		c0,0.75,0.61,1.36,1.36,1.36c0.75,0,1.36-0.61,1.36-1.36c0-0.18-0.04-0.35-0.1-0.5c1.09,0.27,1.24,0.74,1.24,0.74
		s0.18,0.45,0.74,0.31c0,0,0.47-0.05,0.23-0.6c0,0-0.7-1.65-3.36-1.74c0,0-1.64-0.07-2.36,0.26c0,0-0.88,0.41-1.21,1.8
		C48.95,33.83,48.81,34.19,49.36,34.19"/>
	<path class="st2" d="M37.98,31.92c0.48,0.12,0.63-0.27,0.63-0.27s0.65-1.7,6.53-0.76c0,0,0.53,0.11,0.46-0.41
		c0,0-0.15-1.15-0.67-1.24c-1.77-0.31-3.38-0.1-3.38-0.1c-3.13,0.33-3.77,2.26-3.77,2.26C37.58,31.87,37.98,31.92,37.98,31.92"/>
	<path class="st4" d="M73.32,123.96c-0.94-0.12-2.41-0.12-4.11,0.55c-0.19,0.07-0.41,0.03-0.55-0.12c-0.14-0.15-0.19-0.36-0.11-0.55
		c0.01-0.01,0.51-1.26,0.65-2.56c0-0.01-0.01-0.03-0.02-0.04c-0.01-0.01-0.03-0.01-0.04,0c-0.48,0.4-0.92,0.82-1.31,1.27
		c-1.24,1.44-1.84,2.97-1.77,4.52c0,0.02,0.01,0.03,0.03,0.03c0.17,0.03,0.45,0.06,0.8,0.06c0.34,0,0.75-0.03,1.22-0.13
		c1.18-0.24,3.05-0.95,5.23-2.99c0.01-0.01,0.01-0.02,0.01-0.04C73.34,123.97,73.33,123.96,73.32,123.96"/>
	<path class="st4" d="M25.58,121.21c-0.01-0.01-0.03-0.01-0.04,0c-0.01,0.01-0.02,0.02-0.02,0.03c0.11,1.35,0.62,2.58,0.63,2.59
		c0.08,0.19,0.04,0.41-0.11,0.55c-0.14,0.15-0.36,0.19-0.55,0.12c-1.71-0.67-3.18-0.67-4.12-0.55c-0.01,0-0.03,0.01-0.03,0.02
		c0,0.01,0,0.03,0.01,0.04c1.76,1.65,3.52,2.65,5.23,3c0.47,0.09,0.88,0.12,1.21,0.12c0.38,0,0.65-0.04,0.8-0.06
		c0.02,0,0.03-0.02,0.03-0.03C28.75,124.29,26.77,122.21,25.58,121.21"/>
	<path class="st4" d="M77.17,118.83c-0.94,0.06-2.39,0.34-3.93,1.32c-0.17,0.11-0.39,0.11-0.56-0.01c-0.17-0.12-0.25-0.32-0.21-0.52
		c0-0.01,0.27-1.34,0.14-2.67c0-0.01-0.01-0.03-0.02-0.03c-0.01-0.01-0.03,0-0.04,0.01c-0.39,0.45-0.75,0.92-1.06,1.4
		c-1,1.56-1.45,3.12-1.35,4.62c0,0.02,0.02,0.03,0.03,0.03c0.07,0,0.15,0.01,0.24,0.01c0.44,0,1.14-0.06,1.97-0.32
		c0.88-0.29,1.75-0.76,2.56-1.39c0.8-0.63,1.56-1.43,2.26-2.38c0.01-0.01,0.01-0.03,0-0.04C77.19,118.84,77.18,118.83,77.17,118.83"
		/>
	<path class="st4" d="M80.32,113.55c-0.93,0.16-2.34,0.59-3.77,1.72c-0.16,0.13-0.38,0.15-0.56,0.05c-0.18-0.1-0.28-0.29-0.26-0.5
		c0-0.01,0.12-1.38-0.14-2.68c0-0.01-0.01-0.02-0.03-0.03c-0.01,0-0.03,0-0.04,0.01c-0.34,0.49-0.65,0.99-0.91,1.51
		c-0.83,1.66-1.12,3.25-0.85,4.73c0,0.02,0.02,0.03,0.04,0.03h0c0.32-0.02,1.17-0.1,2.16-0.54c0.85-0.38,1.66-0.93,2.4-1.65
		c0.73-0.71,1.4-1.58,2-2.6c0.01-0.01,0.01-0.03,0-0.04C80.35,113.55,80.34,113.55,80.32,113.55"/>
	<path class="st4" d="M82.86,107.77c-0.18,0.04-0.37,0.09-0.55,0.16c-0.75,0.26-1.89,0.82-3.02,2.05c-0.14,0.15-0.36,0.2-0.55,0.13
		c-0.19-0.07-0.33-0.25-0.34-0.46c0-0.01-0.07-1.37-0.48-2.65c0-0.01-0.02-0.02-0.03-0.02c-0.01,0-0.03,0.01-0.03,0.02
		c-0.28,0.49-0.51,1.01-0.7,1.53c-0.63,1.72-0.73,3.35-0.28,4.87c0,0.02,0.02,0.03,0.03,0.03c0,0,0,0,0.01,0
		c0.39-0.07,1.18-0.26,2.08-0.79c0.8-0.47,1.54-1.11,2.19-1.91c0.66-0.81,1.23-1.78,1.71-2.9c0.01-0.01,0-0.03-0.01-0.04
		C82.89,107.77,82.88,107.76,82.86,107.77"/>
	<path class="st4" d="M84.69,101.96c-0.88,0.35-2.16,1.07-3.31,2.48c-0.13,0.16-0.34,0.22-0.54,0.17c-0.2-0.06-0.34-0.22-0.37-0.43
		c-0.01-0.06-0.2-1.47-0.74-2.72c-0.01-0.01-0.02-0.02-0.03-0.02c-0.01,0-0.03,0.01-0.03,0.02c-0.23,0.56-0.41,1.14-0.55,1.71
		c-0.3,1.27-0.51,3.14,0.21,4.89c0.01,0.01,0.02,0.02,0.03,0.02c0,0,0.01,0,0.01,0c0.31-0.08,1.12-0.35,2-0.99
		c0.75-0.55,1.42-1.26,1.98-2.12c0.56-0.85,1.03-1.85,1.39-2.97c0-0.01,0-0.03-0.01-0.04C84.72,101.95,84.71,101.95,84.69,101.96"/>
	<path class="st4" d="M85.89,95.82c-0.83,0.46-2.01,1.33-2.98,2.86c-0.11,0.17-0.31,0.27-0.51,0.23c-0.2-0.03-0.37-0.18-0.42-0.38
		c0-0.01-0.38-1.48-1.07-2.67c-0.01-0.01-0.02-0.02-0.04-0.02c-0.01,0-0.03,0.01-0.03,0.03c-0.16,0.57-0.28,1.15-0.35,1.73
		c-0.22,1.87,0.06,3.53,0.84,4.92c0.01,0.01,0.02,0.02,0.03,0.02c0,0,0.01,0,0.01,0c0.37-0.15,1.09-0.51,1.85-1.22
		c0.67-0.63,1.25-1.42,1.7-2.34c0.45-0.91,0.79-1.96,1.01-3.12c0-0.01,0-0.03-0.01-0.04C85.92,95.82,85.9,95.82,85.89,95.82"/>
	<path class="st4" d="M83.8,92.83c-0.09,0.19-0.28,0.3-0.49,0.29c-0.21-0.01-0.39-0.15-0.45-0.35c0-0.01-0.47-1.38-1.32-2.42
		c-0.01-0.01-0.02-0.01-0.04-0.01c-0.01,0-0.02,0.01-0.03,0.03c-0.11,0.59-0.18,1.18-0.19,1.76c-0.03,1.83,0.43,3.41,1.38,4.7
		c0.01,0.01,0.02,0.01,0.03,0.01c0.01,0,0.01,0,0.02,0c0.28-0.15,1-0.59,1.71-1.42c0.6-0.7,1.08-1.55,1.43-2.51
		c0.34-0.95,0.56-2.03,0.65-3.21c0-0.01-0.01-0.03-0.02-0.03c-0.01-0.01-0.03-0.01-0.04,0C85.66,90.2,84.58,91.19,83.8,92.83"/>
	<path class="st4" d="M83.58,87.26c-0.21,0.01-0.4-0.1-0.49-0.28c-0.01-0.01-0.6-1.21-1.51-2.19c-0.01-0.01-0.03-0.01-0.04-0.01
		c-0.01,0-0.02,0.02-0.02,0.03c-0.05,1.5,0.1,4.31,1.78,6.2c0.01,0.01,0.02,0.01,0.03,0.01c0.01,0,0.01,0,0.02-0.01
		c0.26-0.18,0.94-0.68,1.56-1.57c0.53-0.76,0.92-1.64,1.17-2.64c0.25-0.98,0.36-2.08,0.33-3.26c0-0.01-0.01-0.03-0.02-0.03
		c-0.01-0.01-0.03,0-0.04,0.01c-0.71,0.61-1.69,1.7-2.31,3.4C83.97,87.11,83.79,87.25,83.58,87.26"/>
	<path class="st4" d="M83.3,81.28c-0.2,0.03-0.4-0.06-0.51-0.23c-0.01-0.01-0.7-1.11-1.66-1.99c-0.01-0.01-0.03-0.01-0.04-0.01
		c-0.01,0.01-0.02,0.02-0.02,0.04c0.15,1.64,0.65,4.6,2.3,5.97c0.01,0.01,0.01,0.01,0.02,0.01c0.01,0,0.02,0,0.02-0.01
		c0.25-0.2,0.88-0.78,1.42-1.74c0.45-0.81,0.75-1.73,0.91-2.74c0.15-1,0.15-2.1,0.01-3.28c0-0.01-0.01-0.03-0.02-0.03
		c-0.01,0-0.03,0-0.04,0.01c-0.65,0.68-1.52,1.86-1.96,3.62C83.66,81.1,83.5,81.25,83.3,81.28"/>
	<path class="st4" d="M82.51,75.46c-0.2,0.04-0.41-0.04-0.52-0.21c-0.01-0.01-0.78-1.12-1.82-1.95c-0.01-0.01-0.03-0.01-0.04,0
		s-0.02,0.02-0.02,0.04c0.06,0.6,0.16,1.18,0.3,1.74c0.31,1.24,0.97,2.97,2.36,4.15c0.01,0.01,0.01,0.01,0.02,0.01
		c0.01,0,0.02,0,0.02-0.01c0.23-0.21,0.83-0.81,1.31-1.78c0.41-0.82,0.67-1.76,0.78-2.78c0.1-1.01,0.05-2.11-0.15-3.27
		c0-0.01-0.01-0.02-0.03-0.03c-0.01,0-0.03,0-0.04,0.01c-0.62,0.71-1.43,1.93-1.79,3.7C82.86,75.26,82.71,75.42,82.51,75.46"/>
	<path class="st4" d="M81.21,69.71c-0.19,0.07-0.41,0.01-0.55-0.14c-0.01-0.01-0.94-1.02-2.1-1.71c-0.01-0.01-0.03-0.01-0.04,0
		c-0.01,0.01-0.02,0.02-0.01,0.04c0.13,0.57,0.3,1.13,0.51,1.66c0.68,1.73,1.67,3.01,2.96,3.82c0.01,0,0.01,0.01,0.02,0.01
		c0.01,0,0.02,0,0.03-0.01c0.2-0.24,0.71-0.92,1.05-1.94c0.29-0.87,0.42-1.83,0.39-2.86c-0.04-1.01-0.24-2.1-0.6-3.22
		c0-0.01-0.02-0.02-0.03-0.02c-0.01,0-0.03,0-0.04,0.02c-0.51,0.79-1.15,2.11-1.26,3.91C81.54,69.47,81.4,69.64,81.21,69.71"/>
	<path class="st4" d="M78.67,64.01c-0.01-0.01-1.05-0.92-2.26-1.48c-0.01-0.01-0.03,0-0.04,0.01c-0.01,0.01-0.01,0.02-0.01,0.04
		c0.19,0.56,0.42,1.1,0.68,1.6c0.85,1.65,1.98,2.83,3.35,3.5c0,0,0.01,0,0.02,0c0.01,0,0.02-0.01,0.03-0.02
		c0.18-0.26,0.61-0.99,0.85-2.04c0.2-0.9,0.23-1.87,0.09-2.88c-0.14-1-0.45-2.06-0.93-3.15c-0.01-0.01-0.02-0.02-0.03-0.02
		c-0.02,0-0.03,0.01-0.03,0.02c-0.43,0.84-0.92,2.21-0.85,4.02c0.01,0.2-0.11,0.39-0.29,0.48C79.04,64.18,78.82,64.14,78.67,64.01"
		/>
	<path class="st4" d="M73.58,57.49c-0.01,0.01-0.01,0.02-0.01,0.04c0.23,0.55,0.52,1.08,0.84,1.57c1.01,1.54,2.3,2.59,3.84,3.12
		c0,0,0.01,0,0.01,0c0.01,0,0.03-0.01,0.03-0.02c0.14-0.28,0.49-1.05,0.6-2.12c0.09-0.91,0.01-1.88-0.25-2.87
		c-0.26-0.98-0.69-2-1.3-3.02c-0.01-0.01-0.02-0.02-0.03-0.02c-0.01,0-0.03,0.01-0.03,0.02c-0.33,0.88-0.65,2.3-0.37,4.08
		c0.03,0.21-0.07,0.42-0.25,0.52c-0.18,0.11-0.41,0.09-0.58-0.04c-0.01-0.01-1.15-0.9-2.47-1.28
		C73.61,57.48,73.59,57.48,73.58,57.49"/>
	<path class="st4" d="M70.21,53.03c-0.01,0.01-0.01,0.03,0,0.04c0.35,0.53,0.75,1.02,1.17,1.47c1.28,1.36,2.69,2.19,4.19,2.47
		c0,0,0,0,0,0c0.02,0,0.03-0.01,0.04-0.02c0.12-0.37,0.31-1.15,0.25-2.18c-0.06-0.92-0.3-1.86-0.71-2.79
		c-0.41-0.91-0.99-1.83-1.73-2.73c-0.01-0.01-0.02-0.01-0.04-0.01c-0.01,0-0.02,0.01-0.03,0.03c-0.16,0.97-0.24,2.45,0.26,4.05
		c0.06,0.21-0.01,0.44-0.19,0.56c-0.18,0.13-0.42,0.13-0.59,0.01c-0.01-0.01-1.15-0.79-2.59-0.89
		C70.23,53.01,70.22,53.01,70.21,53.03"/>
	<path class="st4" d="M69.58,49.39c-0.14,0.16-0.37,0.21-0.57,0.13c-0.01-0.01-1.21-0.46-2.49-0.46c-0.06,0-0.13,0-0.19,0
		c-0.01,0-0.03,0.01-0.03,0.02c-0.01,0.01,0,0.03,0.01,0.04c0.47,0.49,0.96,0.93,1.47,1.32c1.02,0.79,2.59,1.72,4.3,1.72
		c0.03,0,0.06,0,0.09,0c0.02,0,0.03-0.01,0.03-0.03c0.04-0.32,0.11-1.17-0.14-2.25c-0.21-0.91-0.6-1.8-1.16-2.66
		c-0.55-0.84-1.26-1.66-2.13-2.42c-0.01-0.01-0.03-0.01-0.04-0.01c-0.01,0.01-0.02,0.02-0.02,0.03c-0.03,0.93,0.11,2.38,0.95,3.98
		C69.75,49,69.72,49.24,69.58,49.39"/>
	<path class="st4" d="M24.34,122.99c0.09,0,0.17,0,0.24-0.01c0.02,0,0.03-0.02,0.03-0.03c0.15-2.48-1.46-4.82-2.44-5.99
		c-0.01-0.01-0.02-0.02-0.04-0.01c-0.01,0-0.02,0.02-0.03,0.03c-0.15,1.35,0.16,2.61,0.17,2.62c0.05,0.2-0.02,0.42-0.2,0.54
		c-0.17,0.12-0.4,0.13-0.57,0.02c-1.55-0.99-2.99-1.27-3.93-1.33c-0.02,0-0.03,0.01-0.03,0.02c-0.01,0.01-0.01,0.03,0,0.04
		c0.7,0.95,1.46,1.76,2.26,2.39c0.81,0.64,1.67,1.11,2.56,1.39C23.2,122.93,23.9,122.99,24.34,122.99"/>
	<path class="st4" d="M20.95,118.4L20.95,118.4c0.02,0,0.03-0.01,0.04-0.03c0.31-1.81-0.3-3.55-0.86-4.69
		c-0.26-0.52-0.56-1.03-0.9-1.52c-0.01-0.01-0.02-0.02-0.04-0.01c-0.01,0-0.02,0.01-0.03,0.03c-0.28,1.34-0.14,2.59-0.13,2.65
		c0.02,0.21-0.08,0.41-0.26,0.51c-0.18,0.1-0.4,0.08-0.57-0.05c-1.44-1.14-2.84-1.57-3.77-1.72c-0.01,0-0.03,0-0.04,0.01
		c-0.01,0.01-0.01,0.03,0,0.04c0.6,1.02,1.27,1.9,2,2.61c0.74,0.72,1.55,1.27,2.4,1.65C19.74,118.28,20.55,118.38,20.95,118.4"/>
	<path class="st4" d="M17.79,113.5C17.79,113.5,17.79,113.5,17.79,113.5c0.02,0,0.04-0.01,0.04-0.02c0.46-1.5,0.37-3.14-0.27-4.86
		c-0.2-0.54-0.45-1.06-0.74-1.57c-0.01-0.01-0.02-0.02-0.03-0.02c-0.01,0-0.03,0.01-0.03,0.02c-0.42,1.28-0.46,2.66-0.46,2.67
		c0,0.21-0.13,0.39-0.32,0.46c-0.19,0.08-0.41,0.03-0.55-0.11c-1.11-1.11-2.26-1.69-3.03-1.98c-0.17-0.06-0.34-0.12-0.51-0.17
		c-0.01,0-0.03,0-0.04,0.01c-0.01,0.01-0.01,0.02-0.01,0.04c0.47,1.08,1.04,2.03,1.68,2.82c0.65,0.8,1.39,1.44,2.19,1.91
		C16.65,113.26,17.48,113.44,17.79,113.5"/>
	<path class="st4" d="M15.23,108.19C15.23,108.19,15.24,108.19,15.23,108.19c0.02,0,0.04-0.01,0.04-0.02
		c1.19-2.63,0.36-5.22-0.24-6.53c-0.01-0.01-0.02-0.02-0.03-0.02h0c-0.01,0-0.03,0.01-0.03,0.02c-0.58,1.22-0.79,2.62-0.79,2.64
		c-0.03,0.2-0.18,0.37-0.37,0.42c-0.2,0.05-0.41-0.02-0.53-0.18c-0.97-1.23-2.05-1.94-2.78-2.31c-0.16-0.08-0.32-0.16-0.49-0.23
		c-0.01-0.01-0.03,0-0.04,0.01c-0.01,0.01-0.01,0.02-0.01,0.04C11.35,106.64,14.11,107.87,15.23,108.19"/>
	<path class="st4" d="M11.4,101.48c0.82,0.72,1.61,1.06,1.91,1.17c0,0,0.01,0,0.01,0c0.01,0,0.02-0.01,0.03-0.02
		c0.94-1.59,1.22-3.28,0.85-5.01c-0.12-0.56-0.3-1.11-0.55-1.63c-0.01-0.01-0.02-0.02-0.03-0.02c-0.01,0-0.03,0.01-0.03,0.02
		c-0.7,1.18-1.03,2.61-1.04,2.67l0.03,0.01l-0.04-0.01c-0.04,0.2-0.2,0.35-0.4,0.39c-0.2,0.04-0.4-0.05-0.52-0.22
		c-1.02-1.52-2.24-2.34-3.07-2.76c-0.01-0.01-0.03-0.01-0.04,0c-0.01,0.01-0.02,0.02-0.01,0.04c0.26,1.15,0.63,2.19,1.11,3.08
		C10.11,100.1,10.71,100.87,11.4,101.48"/>
	<path class="st4" d="M11.74,97.01c0.01,0,0.01,0,0.02,0c0.01,0,0.02,0,0.03-0.01c1.91-2.58,1.73-5.14,1.45-6.43
		c0-0.01-0.01-0.02-0.03-0.03c-0.01,0-0.03,0-0.04,0.01c-0.9,1.06-1.45,2.4-1.46,2.41c-0.08,0.19-0.26,0.31-0.47,0.32
		c0,0-0.01,0-0.01,0c-0.2,0-0.38-0.12-0.47-0.3c-0.64-1.43-1.51-2.37-2.12-2.91c-0.14-0.12-0.28-0.23-0.42-0.34
		c-0.01-0.01-0.03-0.01-0.04,0c-0.01,0.01-0.02,0.02-0.02,0.03C8.38,94.56,10.74,96.43,11.74,97.01"/>
	<path class="st4" d="M11.24,91.21c0.01,0,0.01,0.01,0.02,0.01c0.01,0,0.02,0,0.02-0.01c0.93-0.89,1.52-2.06,1.76-3.46
		c0.2-1.17,0.11-2.27-0.01-2.98c0-0.01-0.01-0.02-0.02-0.03c-0.01,0-0.03,0-0.04,0.01c-1.08,0.98-1.3,2.26-1.31,2.27
		c-0.04,0.23-0.23,0.41-0.47,0.43c-0.24,0.02-0.45-0.13-0.52-0.35c-0.48-1.49-1.25-2.51-1.8-3.11c-0.12-0.13-0.25-0.26-0.38-0.38
		c-0.01-0.01-0.02-0.01-0.04-0.01c-0.01,0-0.02,0.02-0.02,0.03C8.14,88.43,10.3,90.53,11.24,91.21"/>
	<path class="st4" d="M9.85,83.32c0.53,0.95,1.15,1.52,1.4,1.72c0.01,0.01,0.01,0.01,0.02,0.01c0.01,0,0.02,0,0.02-0.01
		c1.11-1.03,1.83-2.48,2.13-4.31c0.1-0.58,0.15-1.19,0.15-1.8c0-0.01-0.01-0.03-0.02-0.03c-0.01-0.01-0.03,0-0.04,0.01
		c-1.02,0.91-1.59,2.08-1.59,2.1c-0.09,0.19-0.3,0.31-0.51,0.29c-0.21-0.02-0.39-0.17-0.45-0.38c-0.45-1.75-1.31-2.94-1.96-3.62
		c-0.01-0.01-0.02-0.01-0.04-0.01c-0.01,0-0.02,0.02-0.02,0.03c-0.15,1.17-0.15,2.27,0.01,3.28C9.1,81.59,9.4,82.51,9.85,83.32"/>
	<path class="st4" d="M10.47,77.34c0.46,0.92,1.01,1.51,1.3,1.77c0.01,0.01,0.02,0.01,0.02,0.01c0.01,0,0.02,0,0.02-0.01
		c1.28-1.14,2.13-2.6,2.53-4.34c0.12-0.52,0.19-1.06,0.22-1.59c0-0.01-0.01-0.03-0.02-0.03c-0.01-0.01-0.03-0.01-0.04,0
		c-1.06,0.83-1.86,1.97-1.89,2.01c-0.12,0.17-0.32,0.25-0.52,0.21c-0.2-0.04-0.36-0.2-0.4-0.4c-0.36-1.77-1.17-2.99-1.79-3.7
		c-0.01-0.01-0.02-0.01-0.04-0.01c-0.01,0-0.02,0.01-0.03,0.03c-0.2,1.16-0.25,2.26-0.15,3.27C9.8,75.59,10.06,76.52,10.47,77.34"/>
	<path class="st4" d="M12.56,73.32c0.01,0.01,0.02,0.01,0.03,0.01c0.01,0,0.01,0,0.02-0.01c1.54-0.96,2.6-2.31,3.16-4.02
		c0.17-0.52,0.29-1.06,0.35-1.6c0-0.01,0-0.03-0.02-0.03c-0.01-0.01-0.03-0.01-0.04,0c-1.26,0.72-2.17,1.8-2.18,1.81
		c-0.13,0.16-0.35,0.22-0.55,0.16c-0.2-0.06-0.34-0.24-0.35-0.45c-0.14-1.82-0.8-3.12-1.32-3.9c-0.01-0.01-0.02-0.02-0.03-0.02
		c-0.01,0-0.02,0.01-0.03,0.02c-0.35,1.13-0.53,2.22-0.56,3.24c-0.02,1.02,0.12,1.98,0.43,2.85C11.84,72.41,12.35,73.08,12.56,73.32
		"/>
	<path class="st4" d="M14.05,67.64c0.01,0.01,0.02,0.02,0.03,0.02c0.01,0,0.01,0,0.02,0c1.65-0.82,2.87-2.03,3.64-3.61
		c0.24-0.48,0.42-0.99,0.55-1.5c0-0.01,0-0.03-0.01-0.04c-0.01-0.01-0.02-0.01-0.04-0.01c-1.26,0.54-2.35,1.48-2.39,1.52
		c-0.15,0.13-0.37,0.16-0.56,0.07C15.11,64,14.99,63.81,15,63.6c0.09-1.82-0.39-3.2-0.81-4.03c-0.01-0.01-0.02-0.02-0.03-0.02h0
		c-0.01,0-0.03,0.01-0.03,0.02c-0.49,1.08-0.81,2.14-0.96,3.14c-0.15,1.01-0.13,1.98,0.06,2.88C13.44,66.61,13.83,67.31,14.05,67.64
		"/>
	<path class="st4" d="M16.19,62.21c0.01,0.01,0.02,0.02,0.03,0.02c0,0,0.01,0,0.01,0c1.48-0.43,2.79-1.41,3.89-2.92
		c0.47-0.65,0.8-1.26,1-1.67c0.01-0.01,0.01-0.03,0-0.04c-0.01-0.01-0.02-0.02-0.03-0.01c-1.44,0.2-2.48,1.21-2.49,1.22
		c-0.16,0.16-0.4,0.19-0.6,0.09c-0.2-0.11-0.3-0.33-0.26-0.55c0.36-1.79,0.09-3.22-0.2-4.1c0-0.01-0.02-0.02-0.03-0.02
		c-0.01,0-0.03,0-0.03,0.02c-0.64,1-1.12,1.99-1.42,2.97c-0.3,0.98-0.43,1.94-0.37,2.86C15.74,61.14,16.05,61.92,16.19,62.21"/>
	<path class="st4" d="M19.18,57.01C19.18,57.01,19.18,57.01,19.18,57.01c2.48-0.42,4.4-2.65,5.32-3.94c0.01-0.01,0.01-0.03,0-0.04
		c-0.01-0.01-0.02-0.02-0.03-0.02c-1.42,0.12-2.54,0.88-2.55,0.89c-0.18,0.12-0.42,0.12-0.6-0.01c-0.18-0.13-0.25-0.36-0.18-0.57
		c0.57-1.73,0.48-3.18,0.3-4.09c0-0.01-0.01-0.02-0.03-0.03c-0.01,0-0.03,0-0.04,0.01c-3.1,3.72-2.59,6.68-2.23,7.77
		C19.15,57,19.16,57.01,19.18,57.01"/>
	<path class="st4" d="M22.66,52.19c0.06,0,0.12,0,0.18,0c1.47,0,3-0.93,4.04-1.73c0.51-0.39,1.02-0.84,1.51-1.33
		c0.01-0.01,0.01-0.03,0.01-0.04c-0.01-0.01-0.02-0.02-0.03-0.02c-1.31,0.04-2.55,0.46-2.56,0.47c-0.2,0.07-0.42,0.01-0.55-0.15
		c-0.14-0.16-0.16-0.38-0.07-0.57c0.84-1.62,0.98-3.06,0.95-3.99c0-0.01-0.01-0.03-0.02-0.03c-0.01-0.01-0.03,0-0.04,0.01
		c-0.9,0.79-1.64,1.62-2.19,2.47c-0.56,0.86-0.95,1.75-1.15,2.65c-0.24,1.08-0.15,1.92-0.1,2.24
		C22.63,52.17,22.64,52.19,22.66,52.19"/>
	<path class="st4" d="M32.93,45.64c-1.32-0.1-2.62,0.16-2.63,0.16c-0.2,0.04-0.41-0.04-0.52-0.21c-0.12-0.17-0.12-0.39-0.01-0.56
		c0.99-1.53,1.27-2.96,1.33-3.88c0-0.01-0.01-0.03-0.02-0.03c-0.01-0.01-0.03-0.01-0.04,0c-3.93,2.83-4.21,5.8-4.14,6.95
		c0,0.02,0.02,0.03,0.03,0.03c0.09,0,0.17,0.01,0.26,0.01c2.39,0,4.62-1.49,5.76-2.39c0.01-0.01,0.02-0.02,0.01-0.04
		C32.95,45.65,32.94,45.64,32.93,45.64"/>
	<path class="st4" d="M37.95,43.22c-0.41-0.12-0.87-0.22-1.37-0.29c-0.74-0.1-1.3-0.09-1.31-0.09h0c-0.21,0-0.41-0.13-0.48-0.33
		c-0.08-0.2-0.02-0.43,0.15-0.57c1.37-1.17,2.01-2.24,2.31-2.94c0.01-0.01,0-0.03-0.01-0.04c-0.01-0.01-0.02-0.01-0.04-0.01
		c-4.57,1.55-5.57,4.22-5.79,5.29c0,0.02,0.01,0.04,0.02,0.04c0.46,0.13,1.07,0.24,1.82,0.24c0.85,0,1.88-0.14,3.08-0.56
		c0.55-0.19,1.1-0.42,1.63-0.69c0.01-0.01,0.02-0.02,0.02-0.03C37.98,43.24,37.97,43.23,37.95,43.22"/>
	<path class="st4" d="M43.42,41.74c-1.19-0.6-2.53-0.85-2.54-0.85c-0.22-0.04-0.38-0.21-0.41-0.43c-0.03-0.22,0.08-0.43,0.28-0.53
		c1.5-0.74,2.26-1.5,2.63-2.01c0.01-0.01,0.01-0.03,0-0.04c-0.01-0.01-0.02-0.02-0.04-0.02c-2.34,0.33-4.2,1.12-5.38,2.29
		c-0.61,0.6-0.92,1.19-1.08,1.57c-0.01,0.02,0,0.04,0.02,0.05c1.02,0.47,2.09,0.62,3.06,0.62c0.65,0,1.26-0.07,1.76-0.16
		c0.56-0.1,1.13-0.24,1.69-0.43c0.01,0,0.02-0.02,0.02-0.03C43.45,41.76,43.44,41.75,43.42,41.74"/>
	<path class="st4" d="M46.99,40.2c-0.21-0.08-0.34-0.28-0.33-0.49c0.01-0.22,0.15-0.41,0.36-0.47c1.49-0.45,2.41-1.02,2.91-1.41
		c0.01-0.01,0.02-0.02,0.01-0.04c0-0.01-0.02-0.02-0.03-0.03c-2.3-0.15-4.24,0.23-5.63,1.11c-0.73,0.46-1.16,0.96-1.4,1.3
		c-0.01,0.02-0.01,0.04,0.01,0.05c1.56,1.18,3.57,1.46,5.11,1.46c0.48,0,0.91-0.03,1.27-0.06c0.01,0,0.03-0.01,0.03-0.03
		c0-0.01,0-0.03-0.01-0.04C48.27,40.68,47.01,40.2,46.99,40.2"/>
	<path class="st4" d="M52.99,40.6c-0.17-0.12-0.26-0.34-0.21-0.54c0.05-0.21,0.22-0.36,0.43-0.39c1.51-0.18,2.52-0.55,3.1-0.82
		c0.01-0.01,0.02-0.02,0.02-0.04c0-0.01-0.01-0.03-0.03-0.03c-2.19-0.6-4.16-0.61-5.68-0.03c-0.81,0.31-1.34,0.71-1.64,1
		c-0.01,0.01-0.01,0.03,0,0.05c1.91,2.28,4.58,2.69,6,2.74h0c0.01,0,0.03-0.01,0.03-0.02c0.01-0.01,0.01-0.03,0-0.04
		C54.17,41.42,53,40.61,52.99,40.6"/>
	<path class="st4" d="M67.91,48.08c0.02,0,0.03-0.02,0.03-0.04c0.01-0.49-0.04-1.46-0.44-2.49c-0.69-1.76-2.08-2.99-4.15-3.68
		c-0.01,0-0.03,0-0.04,0.01c-0.01,0.01-0.01,0.02-0.01,0.04c0.28,0.82,0.8,2.02,1.63,3.06c0.14,0.17,0.15,0.41,0.03,0.59
		c-0.12,0.18-0.34,0.27-0.55,0.22c-0.01,0-1.28-0.3-2.61-0.04c-0.01,0-0.03,0.01-0.03,0.03c0,0.01,0,0.03,0.02,0.04
		c1.3,0.87,3.74,2.27,5.84,2.27C67.73,48.09,67.82,48.08,67.91,48.08"/>
	<path class="st4" d="M63.16,44.37c0-0.01,0-0.02-0.01-0.03c-1.14-1.21-2.6-1.76-4.34-1.66c-0.61,0.04-1.24,0.16-1.86,0.35
		c-0.01,0-0.02,0.01-0.02,0.03c0,0.01,0,0.03,0.01,0.03c1.38,1.07,2.83,1.61,4.31,1.61c0.08,0,0.16,0,0.24,0
		c0.71-0.03,1.28-0.18,1.64-0.31C63.15,44.39,63.16,44.38,63.16,44.37"/>
	<path class="st4" d="M54.76,40.68c0,0.01,0,0.02,0.01,0.03c0.87,0.62,1.94,0.92,3.19,0.92c0.52,0,1.08-0.05,1.67-0.16
		c0.92-0.17,1.75-0.45,2.27-0.66c0.01-0.01,0.02-0.02,0.02-0.03c0-0.01-0.01-0.03-0.02-0.03c-0.84-0.46-1.69-0.77-2.54-0.92
		c-0.91-0.15-1.82-0.13-2.71,0.08c-0.83,0.19-1.48,0.51-1.88,0.74C54.76,40.66,54.76,40.67,54.76,40.68"/>
	<path class="st5" d="M37.67,74.04c0.28,0.34,0.75,0.51,1.43,0.51h6.63c-3.98-2.47-5.44-2.02-8.21-0.76
		C37.56,73.88,37.62,73.97,37.67,74.04"/>
	<path class="st5" d="M53.86,71c-0.62-0.17-1.21-0.32-1.74-0.53c-2.08-0.84-3.8-2.18-3.87-2.24c-0.42-0.33-0.49-0.95-0.16-1.37
		c0.33-0.42,0.94-0.49,1.36-0.16c0.02,0.01,1.56,1.23,3.39,1.96c0.41,0.16,0.94,0.31,1.51,0.45c0.82,0.22,1.83,0.48,2.68,0.92
		c-0.17-1.1-0.34-2.03-0.53-2.92c-2.67-0.6-4.87-2.4-4.96-2.47c-0.2-0.17-0.32-0.4-0.35-0.66c-0.02-0.26,0.05-0.51,0.22-0.71
		c0.34-0.41,0.95-0.47,1.37-0.13c0.01,0.01,1.43,1.16,3.21,1.8c-0.71-2.63-1.66-5.11-2.92-7.55c-0.9-1.75-2.22-2.92-3.93-3.48
		c-1.25-0.41-2.24-0.33-2.25-0.33c-0.03,0-0.06,0-0.09,0c-0.03,0-3.22,0.05-5.23,2.41c-0.01,0.02-0.03,0.04-0.05,0.05
		c-0.37,0.38-1.36,1.55-1.52,2.43c-0.08,0.49,0.04,0.88,0.34,1.04c0.14,0.08,0.66,0.28,1.56-0.35c0.22-0.19,0.37-0.29,0.41-0.32
		c0.43-0.3,1.01-0.21,1.32,0.2c0.32,0.41,0.26,1-0.14,1.33c-0.13,0.11-0.26,0.21-0.38,0.3c-0.4,0.34-1.22,1.1-2.12,2.31
		c-1.2,1.62-2.8,4.4-3.61,8.48c-0.02,0.08-0.03,0.16-0.04,0.24c2.76-1.19,4.99-1.69,9.91,1.48c1.92,1.24,4.14,1.33,4.56,1.33h2.17
		c0.02,0,0.04,0,0.07,0c0.56,0.04,2.18-0.05,2.92-0.85c0.13-0.14,0.22-0.3,0.29-0.48C57.22,72.08,56.17,71.62,53.86,71"/>
	<path class="st6" d="M44.31,108.97c0.26-0.2,0.55-0.55,0.56-0.77c0.01-0.11-0.08-0.25-0.26-0.4c-0.21-0.18-0.43-0.27-0.67-0.27
		c-0.49,0-1.08,0.34-1.95,0.95c-0.56,0.39-1.47,1.15-1.4,1.86c0.03,0.3,0.15,0.41,0.25,0.48c0.45,0.31,1.35,0.2,1.69,0.15
		C42.88,110.22,43.46,109.56,44.31,108.97"/>
	<path class="st6" d="M47.68,110.17c0.01-0.05,0.02-0.21-0.26-0.48c-0.01-0.01-0.43-0.33-1.39,0.23c-0.73,0.43-1.55,0.94-1.91,1.71
		c0.19,0.21,0.38,0.26,0.51,0.29c0.8,0.16,1.91-0.54,2.24-0.79c0.02-0.02,0.04-0.03,0.06-0.05
		C47.16,110.92,47.65,110.51,47.68,110.17"/>
	<path class="st6" d="M37.4,105.46c-0.06-0.01-0.13-0.01-0.2-0.01c-0.72,0-1.73,0.49-2.19,1.1c-0.32,0.42-0.21,0.67-0.18,0.75
		c0.06,0.13,0.36,0.31,0.91,0.4c0.11,0.02,0.23,0.03,0.36,0.04c0.22-0.78,0.76-1.38,1.26-1.86c0.14-0.14,0.27-0.25,0.4-0.36
		c-0.12-0.03-0.22-0.04-0.29-0.05C37.45,105.47,37.43,105.46,37.4,105.46"/>
	<path class="st6" d="M37.71,108.54c0.01,0.16,0.05,0.58,0.89,0.85c0.12,0.04,0.26,0.08,0.4,0.1c0.25-0.84,0.93-1.65,2.02-2.42
		c0.15-0.1,0.3-0.21,0.47-0.32c0.01-0.06,0-0.11-0.01-0.16c-0.05-0.14-0.21-0.29-0.48-0.42c-0.17-0.09-0.36-0.13-0.55-0.13
		c-0.54,0-1.16,0.35-1.91,1.07C37.91,107.71,37.68,108.1,37.71,108.54"/>
	<path class="st6" d="M58.56,106.95c0.5-0.01,0.88-0.14,1.13-0.38c0.25-0.23,0.35-0.55,0.38-0.78c-0.49-0.61-2.14-2.57-4.37-4.02
		c-0.94-0.61-1.95-1.23-2.98-1.63c-1.14-0.44-2.12-0.54-2.98-0.3c-0.02,0-0.03,0.01-0.05,0.01c-0.26,0.05-0.63,0.3-1.06,0.58
		c-0.28,0.18-0.59,0.39-0.95,0.6c-0.99,0.57-2.35,0.98-3.46,1.04c-0.99,0.06-2.23,0.13-2.99-0.94c-0.5-0.7-0.6-1.34-0.34-2.07
		c0.25-0.68,1.04-1.06,2.03-1.55c0.42-0.21,0.86-0.42,1.18-0.63c0.47-0.3,0.76-0.54,1.12-0.84c0.36-0.3,0.78-0.63,1.45-1.1
		c0.28-0.2,0.57-0.36,0.87-0.49c-0.32-0.04-0.66-0.08-1.04-0.11c-1.6-0.13-2.74,0.44-4.41,1.62c-1.45,0.97-4.29,1.87-8.68,2.75
		c-4.19,0.84-9.94,1.68-17.09,2.5c0.22,0.8,0.45,1.59,0.7,2.36c0.91,2.83,2.05,5.54,3.38,8.05c2.54-1.12,8.79-3.94,13.66-6.54
		c0.97-0.92,2.43-1.45,3.56-1.3c0.26,0.02,1.17,0.13,1.87,0.72c0.79-0.25,1.57-0.19,2.28,0.16c0.79,0.4,1.14,0.91,1.29,1.3l0,0
		c1-0.31,1.9-0.12,2.68,0.55c0.48,0.41,0.75,0.89,0.83,1.41c0.96-0.15,1.69,0.18,2.05,0.55c0.72,0.7,0.81,1.41,0.76,1.88
		c-0.04,0.35-0.16,0.7-0.38,1.03c0.48,0.06,0.95,0,1.37-0.17c0.16-0.06,0.3-0.14,0.44-0.22c-0.21-0.42-0.58-1.04-1.17-1.71
		c-0.15-0.17-0.23-0.39-0.21-0.62c0.01-0.23,0.11-0.44,0.28-0.59c0.35-0.31,0.89-0.28,1.2,0.07c0.86,0.97,1.34,1.87,1.55,2.35
		c0.46,0.06,0.83-0.06,1.13-0.36c0.18-0.18,0.31-0.38,0.39-0.53c-0.09-0.2-0.32-0.6-0.89-1.25c-0.48-0.56-1.56-1.37-1.94-1.63
		c-0.19-0.13-0.31-0.33-0.35-0.55c-0.04-0.22,0.01-0.45,0.14-0.64c0.13-0.19,0.33-0.31,0.55-0.35c0.22-0.04,0.45,0.01,0.64,0.14
		c0.06,0.04,1.52,1.07,2.25,1.91c0.54,0.62,0.92,1.18,1.14,1.64c0.6,0,1.08-0.18,1.4-0.54c0.1-0.11,0.18-0.24,0.25-0.39
		c-0.65-0.86-2.29-2.87-4.28-3.84c-0.2-0.1-0.36-0.27-0.43-0.49c-0.07-0.22-0.06-0.45,0.04-0.65c0.1-0.2,0.27-0.36,0.49-0.43
		c0.22-0.07,0.45-0.06,0.65,0.04C56,103.73,57.85,105.99,58.56,106.95"/>
	<path class="st6" d="M47.7,99.01c0.56-0.37,1.05-0.7,1.62-0.82c2.83-0.76,5.75,1.13,7.32,2.15c2.14,1.39,3.74,3.14,4.51,4.05
		c0.01,0.02,0.06,0.07,0.12,0.15l0.03,0.03c0,0,0.01,0.01,0.01,0.01c0.24,0.27,0.75,0.81,1.48,1.32c3.6,2.67,9.07,5.05,11.33,5.97
		c1.4-2.58,2.58-5.38,3.53-8.32c0.23-0.7,0.44-1.43,0.64-2.16c-4.53-0.3-9.36-1.29-12.62-2.06c-3.76-0.9-6.53-1.77-6.65-1.8
		c-0.77-0.26-1.44-0.5-2.04-0.72c-2.05-0.74-3.41-1.23-4.92-1.16c-0.18,0.01-0.36,0.01-0.53,0.02c-0.23,0.01-0.45,0.01-0.66,0.02
		l-0.03,0c-1.41,0.03-2.34,0.05-3.18,0.64c-0.62,0.44-1.01,0.75-1.35,1.03c-0.38,0.31-0.73,0.59-1.27,0.94
		c-0.41,0.26-0.89,0.5-1.36,0.73c-0.36,0.18-1.03,0.5-1.21,0.67c-0.03,0.08-0.04,0.17,0.15,0.43c0.2,0.28,0.71,0.28,1.51,0.23
		c0.71-0.04,1.82-0.31,2.71-0.82C47.15,99.37,47.43,99.19,47.7,99.01"/>
</g>
<g>
	<path class="st2" d="M131.62,113.71l-2.21-6.76c-0.08-0.23-0.29-0.39-0.54-0.39h-9.41c-0.24,0-0.46,0.16-0.54,0.39l-2.21,6.76
		c-0.08,0.23-0.29,0.39-0.54,0.39h-3.44c-0.39,0-0.66-0.38-0.53-0.74l8.44-25.07c0.08-0.23,0.29-0.38,0.53-0.38h6.02
		c0.24,0,0.46,0.15,0.53,0.38l8.44,25.07c0.12,0.37-0.15,0.74-0.53,0.74h-3.48C131.92,114.1,131.7,113.94,131.62,113.71z
		 M121.06,102.77h6.22c0.38,0,0.66-0.37,0.54-0.74l-3.12-9.51c-0.17-0.52-0.9-0.52-1.07,0l-3.1,9.51
		C120.4,102.39,120.67,102.77,121.06,102.77z"/>
	<path class="st2" d="M139.63,94.78h2.77c0.28,0,0.52,0.21,0.56,0.49l0.29,2.03h0.25c0.57-0.91,1.31-1.59,2.24-2.05
		c0.93-0.46,1.94-0.69,3.05-0.69c0.34,0,0.69,0.02,1.04,0.06c0.28,0.03,0.5,0.28,0.5,0.57v3.07c0,0.33-0.28,0.59-0.61,0.56
		c-0.35-0.03-0.75-0.05-1.2-0.05c-0.92,0-1.83,0.19-2.72,0.57c-0.82,0.35-1.48,0.83-1.98,1.45c-0.08,0.1-0.12,0.23-0.12,0.36v12.39
		c0,0.31-0.25,0.56-0.56,0.56h-3.51c-0.31,0-0.56-0.25-0.56-0.56V95.35C139.06,95.04,139.31,94.78,139.63,94.78z"/>
	<path class="st2" d="M155.94,122.04c-0.92-0.12-1.79-0.28-2.62-0.5c-0.25-0.06-0.42-0.29-0.42-0.55v-2.51
		c0-0.37,0.35-0.63,0.71-0.54c1.8,0.46,3.52,0.69,5.15,0.69c1.32,0,2.4-0.17,3.22-0.5c0.83-0.34,1.44-0.88,1.83-1.62
		c0.4-0.74,0.59-1.72,0.59-2.94v-1.52h-0.23c-0.6,0.7-1.34,1.24-2.2,1.63c-0.87,0.39-1.84,0.58-2.93,0.58c-1.38,0-2.63-0.33-3.75-1
		c-1.12-0.67-2.02-1.71-2.69-3.12c-0.67-1.41-1.01-3.18-1.01-5.3c0-3.4,0.89-5.97,2.66-7.72c1.77-1.75,4.4-2.63,7.89-2.64
		c1.16,0,2.35,0.09,3.59,0.27c1.07,0.15,2.05,0.36,2.91,0.62c0.24,0.07,0.4,0.29,0.4,0.54v16.82c0,2.23-0.36,4.04-1.09,5.44
		c-0.73,1.4-1.82,2.42-3.28,3.08c-1.46,0.65-3.32,0.98-5.58,0.98C158.07,122.24,157.02,122.17,155.94,122.04z M162.76,110.06
		c0.58-0.23,1.08-0.56,1.5-1c0.1-0.11,0.16-0.25,0.16-0.4v-9.83c0-0.27-0.19-0.51-0.46-0.56c-0.74-0.14-1.47-0.21-2.19-0.21
		c-1.83,0-3.2,0.51-4.12,1.52c-0.92,1.02-1.37,2.63-1.37,4.85c0,2.21,0.38,3.76,1.15,4.66c0.77,0.9,1.86,1.35,3.29,1.35
		C161.42,110.45,162.1,110.32,162.76,110.06z"/>
	<path class="st2" d="M188.77,105.83h-10.78c-0.34,0-0.6,0.3-0.56,0.64c0.1,0.96,0.32,1.74,0.66,2.34c0.41,0.74,1.05,1.27,1.91,1.6
		c0.86,0.33,2.01,0.5,3.45,0.5c1.23,0,2.62-0.17,4.16-0.51c0.35-0.08,0.69,0.18,0.69,0.55v2.36c0,0.26-0.18,0.5-0.44,0.56
		c-1.7,0.39-3.38,0.59-5.05,0.59c-2.3,0-4.19-0.35-5.67-1.04c-1.48-0.7-2.59-1.78-3.32-3.25c-0.73-1.47-1.1-3.38-1.1-5.73
		c0-2.16,0.34-3.98,1.01-5.47c0.67-1.49,1.65-2.6,2.92-3.35c1.27-0.75,2.81-1.12,4.62-1.12c2.63,0,4.63,0.85,6,2.54
		c1.37,1.69,2.05,4.21,2.05,7.55v0.69C189.33,105.58,189.08,105.83,188.77,105.83z M178.39,98.78c-0.58,0.76-0.92,1.99-1.01,3.68
		c-0.02,0.32,0.25,0.59,0.57,0.59h6.46c0.32,0,0.58-0.27,0.57-0.59c-0.09-1.69-0.41-2.91-0.96-3.68c-0.62-0.85-1.54-1.27-2.77-1.27
		C179.99,97.51,179.04,97.93,178.39,98.78z"/>
	<path class="st2" d="M193.35,94.78h2.79c0.28,0,0.51,0.2,0.56,0.48l0.24,1.56h0.25c0.73-0.75,1.6-1.33,2.59-1.73
		c1-0.4,2.06-0.6,3.2-0.6c1.99,0,3.57,0.59,4.73,1.76c1.16,1.17,1.74,3.03,1.74,5.57v11.72c0,0.31-0.25,0.56-0.56,0.56h-3.51
		c-0.31,0-0.56-0.25-0.56-0.56v-11.46c0-1.29-0.27-2.2-0.81-2.75c-0.54-0.55-1.33-0.82-2.37-0.82c-0.78,0-1.55,0.16-2.3,0.49
		c-0.69,0.3-1.28,0.73-1.76,1.3c-0.09,0.1-0.13,0.24-0.13,0.37v12.87c0,0.31-0.25,0.56-0.56,0.56h-3.51c-0.31,0-0.56-0.25-0.56-0.56
		V95.35C192.79,95.04,193.04,94.78,193.35,94.78z"/>
	<path class="st2" d="M225.39,111.01v2.59c0,0.27-0.19,0.51-0.45,0.56c-0.97,0.19-1.93,0.29-2.89,0.29c-4.58,0-6.87-2.31-6.87-6.92
		v-8.48c0-0.31-0.25-0.56-0.56-0.56h-2.2c-0.31,0-0.56-0.25-0.56-0.56v-2.57c0-0.31,0.25-0.56,0.56-0.56h2.26
		c0.29,0,0.53-0.21,0.56-0.5l0.7-5.89c0.03-0.28,0.27-0.5,0.56-0.5h2.76c0.31,0,0.56,0.25,0.56,0.56v5.76
		c0,0.31,0.25,0.56,0.56,0.56h4.27c0.31,0,0.56,0.25,0.56,0.56v2.57c0,0.31-0.25,0.56-0.56,0.56h-4.27c-0.31,0-0.56,0.25-0.56,0.56
		v7.74c0,0.94,0.12,1.69,0.36,2.25c0.24,0.55,0.61,0.95,1.11,1.19c0.5,0.24,1.15,0.36,1.96,0.36c0.42,0,0.92-0.05,1.5-0.14
		C225.09,110.4,225.39,110.67,225.39,111.01z"/>
	<path class="st2" d="M228.78,90.83c-0.49-0.43-0.73-1.05-0.73-1.87c0-0.81,0.24-1.44,0.73-1.88c0.49-0.44,1.22-0.66,2.2-0.66
		c0.98,0,1.71,0.22,2.2,0.66c0.49,0.44,0.73,1.06,0.73,1.88c0,0.81-0.25,1.44-0.73,1.87c-0.49,0.43-1.23,0.65-2.2,0.65
		C230,91.47,229.27,91.26,228.78,90.83z M228.65,113.53V95.35c0-0.31,0.25-0.56,0.56-0.56h3.53c0.31,0,0.56,0.25,0.56,0.56v18.18
		c0,0.31-0.25,0.56-0.56,0.56h-3.53C228.9,114.1,228.65,113.84,228.65,113.53z"/>
	<path class="st2" d="M237.67,94.78h2.79c0.28,0,0.51,0.2,0.56,0.48l0.24,1.56h0.25c0.73-0.75,1.6-1.33,2.59-1.73
		c1-0.4,2.06-0.6,3.19-0.6c1.99,0,3.57,0.59,4.73,1.76c1.16,1.17,1.74,3.03,1.74,5.57v11.72c0,0.31-0.25,0.56-0.56,0.56h-3.51
		c-0.31,0-0.56-0.25-0.56-0.56v-11.46c0-1.29-0.27-2.2-0.81-2.75c-0.54-0.55-1.33-0.82-2.37-0.82c-0.78,0-1.55,0.16-2.3,0.49
		c-0.69,0.3-1.28,0.73-1.76,1.3c-0.09,0.1-0.13,0.24-0.13,0.37v12.87c0,0.31-0.25,0.56-0.56,0.56h-3.51c-0.31,0-0.56-0.25-0.56-0.56
		V95.35C237.1,95.04,237.35,94.78,237.67,94.78z"/>
	<path class="st2" d="M269.39,95.22c1.22,0.49,2.12,1.3,2.72,2.42c0.6,1.12,0.89,2.64,0.89,4.57v11.33c0,0.31-0.25,0.56-0.56,0.56
		h-2.8c-0.28,0-0.51-0.2-0.56-0.48l-0.24-1.53h-0.25c-0.58,0.77-1.32,1.35-2.24,1.74c-0.91,0.4-1.93,0.59-3.04,0.59
		c-1.26,0-2.35-0.22-3.27-0.67c-0.92-0.45-1.63-1.08-2.12-1.9c-0.49-0.82-0.73-1.78-0.73-2.89c0-1.79,0.61-3.18,1.84-4.16
		c1.23-0.98,3.17-1.58,5.82-1.79l3.61-0.34v-0.76c0-0.98-0.16-1.75-0.47-2.31c-0.31-0.56-0.8-0.96-1.47-1.19
		c-0.67-0.24-1.56-0.35-2.68-0.35c-0.79,0-1.65,0.07-2.57,0.2c-0.66,0.1-1.31,0.23-1.94,0.4c-0.36,0.1-0.72-0.16-0.72-0.54v-2.38
		c0-0.25,0.16-0.48,0.41-0.55c0.77-0.21,1.61-0.38,2.52-0.5c1.08-0.14,2.1-0.21,3.07-0.21C266.59,94.48,268.17,94.73,269.39,95.22z
		 M266.74,110.75c0.58-0.23,1.1-0.59,1.56-1.07c0.1-0.11,0.16-0.26,0.16-0.4v-3.26c0-0.33-0.28-0.59-0.61-0.56l-2.55,0.23
		c-1.22,0.12-2.1,0.41-2.66,0.88c-0.56,0.47-0.84,1.12-0.84,1.96c0,0.85,0.25,1.5,0.75,1.95c0.5,0.45,1.24,0.67,2.2,0.67
		C265.44,111.14,266.1,111.01,266.74,110.75z"/>
</g>
<g>
	<g>
		<path class="st2" d="M129.73,53.88h4.19v19.2h-3.24V58.57l-5.27,11.77h-2.91l-5.27-11.5v14.23h-3.24v-19.2h4.19l5.84,12.95
			L129.73,53.88z"/>
		<path class="st2" d="M137.65,56.02c-0.36-0.32-0.54-0.77-0.54-1.37c0-0.6,0.18-1.06,0.54-1.38c0.36-0.32,0.9-0.48,1.62-0.48
			c0.72,0,1.26,0.16,1.62,0.48c0.36,0.32,0.54,0.78,0.54,1.38c0,0.6-0.18,1.05-0.54,1.37c-0.36,0.32-0.9,0.47-1.62,0.47
			C138.55,56.5,138.01,56.34,137.65,56.02z M137.55,73.08V58.92h3.41v14.16H137.55z"/>
		<path class="st2" d="M144.34,58.92h2.82l0.23,1.49h0.18c0.54-0.55,1.17-0.98,1.9-1.27c0.73-0.29,1.51-0.44,2.34-0.44
			c1.46,0,2.62,0.43,3.46,1.29c0.85,0.86,1.27,2.22,1.27,4.08v9h-3.4v-8.81c0-0.94-0.2-1.62-0.6-2.02c-0.4-0.4-0.98-0.6-1.74-0.6
			c-0.57,0-1.13,0.12-1.69,0.36c-0.55,0.24-1.02,0.6-1.39,1.07v10h-3.4V58.92z"/>
		<path class="st2" d="M159.9,56.02c-0.36-0.32-0.54-0.77-0.54-1.37c0-0.6,0.18-1.06,0.54-1.38c0.36-0.32,0.9-0.48,1.62-0.48
			s1.26,0.16,1.62,0.48c0.36,0.32,0.54,0.78,0.54,1.38c0,0.6-0.18,1.05-0.54,1.37c-0.36,0.32-0.9,0.47-1.62,0.47
			S160.26,56.34,159.9,56.02z M159.8,73.08V58.92h3.41v14.16H159.8z"/>
		<path class="st2" d="M166.16,72.74V70.2c1.38,0.42,2.8,0.62,4.28,0.62c1,0,1.74-0.15,2.2-0.45c0.46-0.3,0.69-0.73,0.69-1.3
			c0-0.46-0.12-0.81-0.36-1.05c-0.24-0.24-0.66-0.42-1.25-0.54l-2.15-0.4c-1.31-0.26-2.26-0.72-2.85-1.37
			c-0.6-0.65-0.9-1.53-0.9-2.63c0-0.88,0.23-1.65,0.69-2.3c0.46-0.65,1.17-1.16,2.11-1.52c0.94-0.36,2.11-0.54,3.5-0.54
			c1.31,0,2.51,0.15,3.62,0.44v2.53c-1.12-0.3-2.29-0.45-3.53-0.45c-2.14,0-3.2,0.59-3.2,1.76c0,0.42,0.12,0.75,0.36,0.99
			c0.24,0.25,0.64,0.43,1.21,0.55l2.15,0.4c1.3,0.26,2.25,0.7,2.86,1.33c0.61,0.63,0.92,1.52,0.92,2.68c0,0.91-0.23,1.69-0.7,2.35
			c-0.47,0.66-1.15,1.16-2.06,1.52c-0.9,0.35-2,0.53-3.28,0.53C168.87,73.34,167.43,73.14,166.16,72.74z"/>
		<path class="st2" d="M187.22,70.33v2.72c-0.82,0.19-1.64,0.29-2.45,0.29c-3.36,0-5.03-1.69-5.03-5.07v-6.63h-2.44v-2.71h2.44
			l0.6-5.05h2.8v5.05h3.96v2.71h-3.96v6.08c0,0.69,0.09,1.24,0.27,1.65c0.18,0.41,0.45,0.7,0.81,0.88c0.36,0.18,0.84,0.27,1.44,0.27
			C186.07,70.51,186.59,70.45,187.22,70.33z"/>
		<path class="st2" d="M200.62,67.02h-8.76c0.04,0.92,0.22,1.65,0.52,2.19c0.3,0.54,0.77,0.93,1.4,1.17
			c0.63,0.24,1.47,0.36,2.53,0.36c1.04,0,2.22-0.17,3.55-0.49v2.58c-1.36,0.34-2.7,0.51-4.02,0.51c-1.69,0-3.07-0.26-4.16-0.77
			c-1.09-0.51-1.9-1.3-2.43-2.38c-0.54-1.08-0.8-2.48-0.8-4.2c0-1.58,0.25-2.92,0.74-4.01c0.49-1.09,1.21-1.91,2.14-2.46
			c0.93-0.55,2.06-0.82,3.39-0.82c1.93,0,3.4,0.62,4.4,1.86c1,1.24,1.51,3.09,1.51,5.53V67.02z M192.6,61.85
			c-0.48,0.62-0.73,1.67-0.75,3.13h5.59c-0.03-1.46-0.27-2.5-0.72-3.13c-0.45-0.62-1.13-0.93-2.03-0.93
			C193.78,60.92,193.08,61.23,192.6,61.85z"/>
		<path class="st2" d="M203.15,58.92h2.8l0.26,1.84h0.18c0.41-0.67,0.96-1.17,1.64-1.51c0.68-0.34,1.43-0.51,2.24-0.51
			c0.37,0,0.75,0.03,1.13,0.09v3.09c-0.34-0.06-0.78-0.09-1.32-0.09c-0.67,0-1.34,0.14-1.99,0.42c-0.65,0.28-1.17,0.67-1.54,1.18
			v9.64h-3.4V58.92z"/>
		<path class="st2" d="M213.5,56.02c-0.36-0.32-0.54-0.77-0.54-1.37c0-0.6,0.18-1.06,0.54-1.38c0.36-0.32,0.9-0.48,1.62-0.48
			c0.72,0,1.26,0.16,1.62,0.48c0.36,0.32,0.54,0.78,0.54,1.38c0,0.6-0.18,1.05-0.54,1.37c-0.36,0.32-0.9,0.47-1.62,0.47
			C214.4,56.5,213.86,56.34,213.5,56.02z M213.4,73.08V58.92h3.41v14.16H213.4z"/>
		<path class="st2" d="M221.26,71.51c-1.16-1.22-1.75-3.04-1.75-5.47c0-2.45,0.57-4.28,1.72-5.5c1.15-1.22,2.77-1.83,4.87-1.83
			c2.1,0,3.73,0.61,4.87,1.83c1.15,1.22,1.72,3.05,1.72,5.49c0,1.63-0.27,2.98-0.8,4.07c-0.53,1.09-1.29,1.9-2.28,2.44
			c-0.99,0.54-2.16,0.8-3.52,0.8C224.04,73.34,222.42,72.73,221.26,71.51z M228.47,69.65c0.53-0.71,0.8-1.91,0.8-3.61
			c0-1.72-0.27-2.94-0.8-3.65c-0.53-0.71-1.32-1.07-2.37-1.07c-1.05,0-1.84,0.35-2.37,1.06c-0.53,0.71-0.8,1.91-0.8,3.61
			c0,1.17,0.12,2.1,0.37,2.79c0.25,0.69,0.6,1.19,1.06,1.49c0.46,0.3,1.04,0.45,1.73,0.45C227.15,70.72,227.94,70.36,228.47,69.65z"
			/>
		<path class="st2" d="M243.99,72.6c-0.86-0.48-1.54-1.25-2.05-2.3c-0.51-1.05-0.76-2.38-0.76-4c0-2.49,0.64-4.38,1.91-5.67
			c1.28-1.29,3.14-1.93,5.59-1.93c0.58,0,1.21,0.05,1.89,0.14v-6.72h3.4v20.97h-2.87l-0.21-1.49h-0.18
			c-0.42,0.54-0.96,0.96-1.61,1.27c-0.65,0.31-1.38,0.47-2.19,0.47C245.83,73.32,244.85,73.08,243.99,72.6z M249.37,70.2
			c0.48-0.21,0.89-0.53,1.21-0.94v-7.75c-0.58-0.13-1.21-0.19-1.89-0.19c-1.38,0-2.4,0.37-3.07,1.11c-0.67,0.74-1,1.94-1,3.59
			c0,1.64,0.28,2.8,0.84,3.48c0.56,0.68,1.36,1.02,2.4,1.02C248.38,70.52,248.88,70.42,249.37,70.2z"/>
		<path class="st2" d="M268.84,67.02h-8.76c0.04,0.92,0.22,1.65,0.52,2.19c0.3,0.54,0.77,0.93,1.4,1.17
			c0.63,0.24,1.47,0.36,2.53,0.36c1.04,0,2.22-0.17,3.55-0.49v2.58c-1.36,0.34-2.7,0.51-4.02,0.51c-1.69,0-3.07-0.26-4.16-0.77
			c-1.09-0.51-1.9-1.3-2.43-2.38c-0.54-1.08-0.8-2.48-0.8-4.2c0-1.58,0.25-2.92,0.74-4.01c0.49-1.09,1.21-1.91,2.14-2.46
			c0.93-0.55,2.06-0.82,3.39-0.82c1.93,0,3.4,0.62,4.4,1.86c1,1.24,1.51,3.09,1.51,5.53V67.02z M260.82,61.85
			c-0.48,0.62-0.73,1.67-0.75,3.13h5.59c-0.03-1.46-0.27-2.5-0.72-3.13c-0.45-0.62-1.13-0.93-2.03-0.93
			C262,60.92,261.3,61.23,260.82,61.85z"/>
		<path class="st2" d="M271.37,73.08V52.11h3.4v20.97H271.37z"/>
		<path class="st2" d="M284.83,73.08v-19.2h3.46v19.2H284.83z"/>
		<path class="st2" d="M291.87,58.92h2.82l0.23,1.49h0.18c0.54-0.55,1.17-0.98,1.9-1.27c0.73-0.29,1.51-0.44,2.34-0.44
			c1.46,0,2.62,0.43,3.46,1.29c0.85,0.86,1.27,2.22,1.27,4.08v9h-3.4v-8.81c0-0.94-0.2-1.62-0.6-2.02c-0.4-0.4-0.98-0.6-1.74-0.6
			c-0.57,0-1.13,0.12-1.69,0.36c-0.55,0.24-1.02,0.6-1.39,1.07v10h-3.4V58.92z"/>
		<path class="st2" d="M315.77,70.33v2.72c-0.82,0.19-1.64,0.29-2.45,0.29c-3.36,0-5.03-1.69-5.03-5.07v-6.63h-2.44v-2.71h2.44
			l0.6-5.05h2.8v5.05h3.96v2.71h-3.96v6.08c0,0.69,0.09,1.24,0.27,1.65c0.18,0.41,0.45,0.7,0.81,0.88c0.36,0.18,0.84,0.27,1.44,0.27
			C314.62,70.51,315.14,70.45,315.77,70.33z"/>
		<path class="st2" d="M329.17,67.02h-8.76c0.04,0.92,0.22,1.65,0.52,2.19c0.3,0.54,0.77,0.93,1.4,1.17
			c0.63,0.24,1.47,0.36,2.53,0.36c1.04,0,2.22-0.17,3.55-0.49v2.58c-1.36,0.34-2.7,0.51-4.02,0.51c-1.69,0-3.07-0.26-4.16-0.77
			c-1.09-0.51-1.9-1.3-2.43-2.38c-0.54-1.08-0.8-2.48-0.8-4.2c0-1.58,0.25-2.92,0.74-4.01c0.49-1.09,1.21-1.91,2.14-2.46
			c0.93-0.55,2.06-0.82,3.39-0.82c1.93,0,3.4,0.62,4.4,1.86c1,1.24,1.51,3.09,1.51,5.53V67.02z M321.15,61.85
			c-0.48,0.62-0.73,1.67-0.75,3.13h5.59c-0.03-1.46-0.27-2.5-0.72-3.13c-0.45-0.62-1.13-0.93-2.03-0.93
			C322.33,60.92,321.63,61.23,321.15,61.85z"/>
		<path class="st2" d="M331.7,58.92h2.8l0.26,1.84h0.18c0.41-0.67,0.96-1.17,1.64-1.51c0.68-0.34,1.43-0.51,2.24-0.51
			c0.37,0,0.75,0.03,1.13,0.09v3.09c-0.34-0.06-0.78-0.09-1.32-0.09c-0.67,0-1.34,0.14-1.99,0.42c-0.65,0.28-1.17,0.67-1.54,1.18
			v9.64h-3.4V58.92z"/>
		<path class="st2" d="M342.05,56.02c-0.36-0.32-0.54-0.77-0.54-1.37c0-0.6,0.18-1.06,0.54-1.38c0.36-0.32,0.9-0.48,1.62-0.48
			c0.72,0,1.26,0.16,1.62,0.48c0.36,0.32,0.54,0.78,0.54,1.38c0,0.6-0.18,1.05-0.54,1.37c-0.36,0.32-0.9,0.47-1.62,0.47
			C342.95,56.5,342.41,56.34,342.05,56.02z M341.95,73.08V58.92h3.41v14.16H341.95z"/>
		<path class="st2" d="M349.81,71.51c-1.16-1.22-1.75-3.04-1.75-5.47c0-2.45,0.57-4.28,1.72-5.5c1.15-1.22,2.77-1.83,4.87-1.83
			c2.1,0,3.73,0.61,4.87,1.83c1.15,1.22,1.72,3.05,1.72,5.49c0,1.63-0.27,2.98-0.8,4.07c-0.53,1.09-1.29,1.9-2.28,2.44
			c-0.99,0.54-2.16,0.8-3.52,0.8C352.59,73.34,350.97,72.73,349.81,71.51z M357.02,69.65c0.53-0.71,0.8-1.91,0.8-3.61
			c0-1.72-0.27-2.94-0.8-3.65c-0.53-0.71-1.32-1.07-2.37-1.07c-1.05,0-1.84,0.35-2.37,1.06c-0.53,0.71-0.8,1.91-0.8,3.61
			c0,1.17,0.12,2.1,0.37,2.79c0.25,0.69,0.6,1.19,1.06,1.49c0.46,0.3,1.04,0.45,1.73,0.45C355.7,70.72,356.49,70.36,357.02,69.65z"
			/>
		<path class="st2" d="M363.94,58.92h2.8l0.26,1.84h0.18c0.42-0.67,0.96-1.17,1.64-1.51c0.68-0.34,1.43-0.51,2.24-0.51
			c0.37,0,0.75,0.03,1.13,0.09v3.09c-0.34-0.06-0.78-0.09-1.32-0.09c-0.67,0-1.34,0.14-1.99,0.42c-0.65,0.28-1.17,0.67-1.54,1.18
			v9.64h-3.4V58.92z"/>
	</g>
</g>
</svg>
